<svg id="my-svg" width="100%" xmlns="http://www.w3.org/2000/svg" xmlns:xlink="http://www.w3.org/1999/xlink" class="classDiagram" style="max-width: 591.438px; background-color: transparent;" viewBox="0 0 591.4375 770" role="graphics-document document" aria-roledescription="class"><style>#my-svg{font-size:16px;fill:#102033;}@keyframes edge-animation-frame{from{stroke-dashoffset:0;}}@keyframes dash{to{stroke-dashoffset:0;}}#my-svg .edge-animation-slow{stroke-dasharray:9,5!important;stroke-dashoffset:900;animation:dash 50s linear infinite;stroke-linecap:round;}#my-svg .edge-animation-fast{stroke-dasharray:9,5!important;stroke-dashoffset:900;animation:dash 20s linear infinite;stroke-linecap:round;}#my-svg .error-icon{fill:#FFF3D9;}#my-svg .error-text{fill:#102033;stroke:#102033;}#my-svg .edge-thickness-normal{stroke-width:1px;}#my-svg .edge-thickness-thick{stroke-width:3.5px;}#my-svg .edge-pattern-solid{stroke-dasharray:0;}#my-svg .edge-thickness-invisible{stroke-width:0;fill:none;}#my-svg .edge-pattern-dashed{stroke-dasharray:3;}#my-svg .edge-pattern-dotted{stroke-dasharray:2;}#my-svg .marker{fill:#7A8794;stroke:#7A8794;}#my-svg .marker.cross{stroke:#7A8794;}#my-svg svg{font-size:16px;}#my-svg p{margin:0;}#my-svg g.classGroup text{fill:#5B8DEF;stroke:none;font-size:10px;}#my-svg g.classGroup text .title{font-weight:bolder;}#my-svg .cluster-label text{fill:#102033;}#my-svg .cluster-label span{color:#102033;}#my-svg .cluster-label span p{background-color:transparent;}#my-svg .cluster rect{fill:#F8FAFC;stroke:#CBD5E1;stroke-width:1px;}#my-svg .cluster text{fill:#102033;}#my-svg .cluster span{color:#102033;}#my-svg .nodeLabel,#my-svg .edgeLabel{color:#102033;}#my-svg .noteLabel .nodeLabel,#my-svg .noteLabel .edgeLabel{color:#333;}#my-svg .edgeLabel .label rect{fill:#E8F3FF;}#my-svg .label text{fill:#102033;}#my-svg .labelBkg{background:#E8F3FF;}#my-svg .edgeLabel .label span{background:#E8F3FF;}#my-svg .classTitle{font-weight:bolder;}#my-svg .node rect,#my-svg .node circle,#my-svg .node ellipse,#my-svg .node polygon,#my-svg .node path{fill:#E8F3FF;stroke:#5B8DEF;stroke-width:1;}#my-svg .divider{stroke:#5B8DEF;stroke-width:1;}#my-svg g.clickable{cursor:pointer;}#my-svg g.classGroup rect{fill:#E8F3FF;stroke:#5B8DEF;}#my-svg g.classGroup line{stroke:#5B8DEF;stroke-width:1;}#my-svg .classLabel .box{stroke:none;stroke-width:0;fill:#E8F3FF;opacity:0.5;}#my-svg .classLabel .label{fill:#5B8DEF;font-size:10px;}#my-svg .relation{stroke:#7A8794;stroke-width:1;fill:none;}#my-svg .dashed-line{stroke-dasharray:3;}#my-svg .dotted-line{stroke-dasharray:1 2;}#my-svg [id$="-compositionStart"],#my-svg .composition{fill:#7A8794!important;stroke:#7A8794!important;stroke-width:1;}#my-svg [id$="-compositionEnd"],#my-svg .composition{fill:#7A8794!important;stroke:#7A8794!important;stroke-width:1;}#my-svg [id$="-dependencyStart"],#my-svg .dependency{fill:#7A8794!important;stroke:#7A8794!important;stroke-width:1;}#my-svg [id$="-dependencyEnd"],#my-svg .dependency{fill:#7A8794!important;stroke:#7A8794!important;stroke-width:1;}#my-svg [id$="-extensionStart"],#my-svg .extension{fill:transparent!important;stroke:#7A8794!important;stroke-width:1;}#my-svg [id$="-extensionEnd"],#my-svg .extension{fill:transparent!important;stroke:#7A8794!important;stroke-width:1;}#my-svg [id$="-aggregationStart"],#my-svg .aggregation{fill:transparent!important;stroke:#7A8794!important;stroke-width:1;}#my-svg [id$="-aggregationEnd"],#my-svg .aggregation{fill:transparent!important;stroke:#7A8794!important;stroke-width:1;}#my-svg [id$="-lollipopStart"],#my-svg .lollipop{fill:#E8F3FF!important;stroke:#7A8794!important;stroke-width:1;}#my-svg [id$="-lollipopEnd"],#my-svg .lollipop{fill:#E8F3FF!important;stroke:#7A8794!important;stroke-width:1;}#my-svg .edgeTerminals{font-size:11px;line-height:initial;}#my-svg .classTitleText{text-anchor:middle;font-size:18px;fill:#102033;}#my-svg .edgeLabel[data-look="neo"]{background-color:#FFFFFF;text-align:center;}#my-svg .edgeLabel[data-look="neo"] p{background-color:#FFFFFF;}#my-svg .edgeLabel[data-look="neo"] rect{opacity:0.5;background-color:#FFFFFF;fill:#FFFFFF;}#my-svg .label-icon{display:inline-block;height:1em;overflow:visible;vertical-align:-0.125em;}#my-svg .node .label-icon path{fill:currentColor;stroke:revert;stroke-width:revert;}#my-svg .node .neo-node{stroke:#5B8DEF;}#my-svg [data-look="neo"].node rect,#my-svg [data-look="neo"].cluster rect,#my-svg [data-look="neo"].node polygon{stroke:url(#my-svg-gradient);filter:drop-shadow( 1px 2px 2px rgba(185,185,185,1));}#my-svg [data-look="neo"].node path{stroke:url(#my-svg-gradient);stroke-width:1px;}#my-svg [data-look="neo"].node .outer-path{filter:drop-shadow( 1px 2px 2px rgba(185,185,185,1));}#my-svg [data-look="neo"].node .neo-line path{stroke:#5B8DEF;filter:none;}#my-svg [data-look="neo"].node circle{stroke:url(#my-svg-gradient);filter:drop-shadow( 1px 2px 2px rgba(185,185,185,1));}#my-svg [data-look="neo"].node circle .state-start{fill:#000000;}#my-svg [data-look="neo"].icon-shape .icon{fill:url(#my-svg-gradient);filter:drop-shadow( 1px 2px 2px rgba(185,185,185,1));}#my-svg [data-look="neo"].icon-shape .icon-neo path{stroke:url(#my-svg-gradient);filter:drop-shadow( 1px 2px 2px rgba(185,185,185,1));}#my-svg :root{--mermaid-font-family:"trebuchet ms",verdana,arial,sans-serif;}#my-svg .JdbcRedisRepository&gt;*{fill:rgb(234, 247, 239)!important;stroke:rgb(88, 169, 120)!important;color:rgb(16, 32, 51)!important;stroke-width:1.5px!important;}#my-svg .JdbcRedisRepository span{fill:rgb(234, 247, 239)!important;stroke:rgb(88, 169, 120)!important;color:rgb(16, 32, 51)!important;stroke-width:1.5px!important;}#my-svg .JdbcLettuceRepository&gt;*{fill:rgb(234, 247, 239)!important;stroke:rgb(88, 169, 120)!important;color:rgb(16, 32, 51)!important;stroke-width:1.5px!important;}#my-svg .JdbcLettuceRepository span{fill:rgb(234, 247, 239)!important;stroke:rgb(88, 169, 120)!important;color:rgb(16, 32, 51)!important;stroke-width:1.5px!important;}#my-svg .JdbcRedissonRepository&gt;*{fill:rgb(234, 247, 239)!important;stroke:rgb(88, 169, 120)!important;color:rgb(16, 32, 51)!important;stroke-width:1.5px!important;}#my-svg .JdbcRedissonRepository span{fill:rgb(234, 247, 239)!important;stroke:rgb(88, 169, 120)!important;color:rgb(16, 32, 51)!important;stroke-width:1.5px!important;}#my-svg .SuspendJdbcRedisRepository&gt;*{fill:rgb(234, 247, 239)!important;stroke:rgb(88, 169, 120)!important;color:rgb(16, 32, 51)!important;stroke-width:1.5px!important;}#my-svg .SuspendJdbcRedisRepository span{fill:rgb(234, 247, 239)!important;stroke:rgb(88, 169, 120)!important;color:rgb(16, 32, 51)!important;stroke-width:1.5px!important;}#my-svg .SuspendedJdbcLettuceRepository&gt;*{fill:rgb(234, 247, 239)!important;stroke:rgb(88, 169, 120)!important;color:rgb(16, 32, 51)!important;stroke-width:1.5px!important;}#my-svg .SuspendedJdbcLettuceRepository span{fill:rgb(234, 247, 239)!important;stroke:rgb(88, 169, 120)!important;color:rgb(16, 32, 51)!important;stroke-width:1.5px!important;}#my-svg .SuspendedJdbcRedissonRepository&gt;*{fill:rgb(234, 247, 239)!important;stroke:rgb(88, 169, 120)!important;color:rgb(16, 32, 51)!important;stroke-width:1.5px!important;}#my-svg .SuspendedJdbcRedissonRepository span{fill:rgb(234, 247, 239)!important;stroke:rgb(88, 169, 120)!important;color:rgb(16, 32, 51)!important;stroke-width:1.5px!important;}#my-svg .R2dbcRedisRepository&gt;*{fill:rgb(234, 247, 239)!important;stroke:rgb(88, 169, 120)!important;color:rgb(16, 32, 51)!important;stroke-width:1.5px!important;}#my-svg .R2dbcRedisRepository span{fill:rgb(234, 247, 239)!important;stroke:rgb(88, 169, 120)!important;color:rgb(16, 32, 51)!important;stroke-width:1.5px!important;}#my-svg .R2dbcLettuceRepository&gt;*{fill:rgb(234, 247, 239)!important;stroke:rgb(88, 169, 120)!important;color:rgb(16, 32, 51)!important;stroke-width:1.5px!important;}#my-svg .R2dbcLettuceRepository span{fill:rgb(234, 247, 239)!important;stroke:rgb(88, 169, 120)!important;color:rgb(16, 32, 51)!important;stroke-width:1.5px!important;}#my-svg .R2dbcRedissonRepository&gt;*{fill:rgb(234, 247, 239)!important;stroke:rgb(88, 169, 120)!important;color:rgb(16, 32, 51)!important;stroke-width:1.5px!important;}#my-svg .R2dbcRedissonRepository span{fill:rgb(234, 247, 239)!important;stroke:rgb(88, 169, 120)!important;color:rgb(16, 32, 51)!important;stroke-width:1.5px!important;}</style><g><defs><marker id="my-svg_class-aggregationStart" class="marker aggregation class" refX="18" refY="7" markerWidth="190" markerHeight="240" orient="auto"><path d="M 18,7 L9,13 L1,7 L9,1 Z"/></marker></defs><defs><marker id="my-svg_class-aggregationEnd" class="marker aggregation class" refX="1" refY="7" markerWidth="20" markerHeight="28" orient="auto"><path d="M 18,7 L9,13 L1,7 L9,1 Z"/></marker></defs><defs><marker id="my-svg_class-aggregationStart-margin" class="marker aggregation class" refX="15" refY="7" markerWidth="190" markerHeight="240" orient="auto" markerUnits="userSpaceOnUse"><path d="M 18,7 L9,13 L1,7 L9,1 Z" style="stroke-width: 2;"/></marker></defs><defs><marker id="my-svg_class-aggregationEnd-margin" class="marker aggregation class" refX="1" refY="7" markerWidth="20" markerHeight="28" orient="auto" markerUnits="userSpaceOnUse"><path d="M 18,7 L9,13 L1,7 L9,1 Z" style="stroke-width: 2;"/></marker></defs><defs><marker id="my-svg_class-extensionStart" class="marker extension class" refX="18" refY="7" markerWidth="20" markerHeight="28" orient="auto" markerUnits="userSpaceOnUse"><path d="M 1,7 L18,13 V 1 Z"/></marker></defs><defs><marker id="my-svg_class-extensionEnd" class="marker extension class" refX="1" refY="7" markerWidth="20" markerHeight="28" orient="auto"><path d="M 1,1 V 13 L18,7 Z"/></marker></defs><marker id="my-svg_class-extensionStart-margin" class="marker extension class" refX="18" refY="7" markerWidth="20" markerHeight="28" orient="auto" markerUnits="userSpaceOnUse" viewBox="0 0 20 14"><polygon points="10,7 18,13 18,1" style="stroke-width: 2; stroke-dasharray: 0;"/></marker><defs><marker id="my-svg_class-extensionEnd-margin" class="marker extension class" refX="9" refY="7" markerWidth="20" markerHeight="28" orient="auto" markerUnits="userSpaceOnUse" viewBox="0 0 20 14"><polygon points="10,1 10,13 18,7" style="stroke-width: 2; stroke-dasharray: 0;"/></marker></defs><defs><marker id="my-svg_class-compositionStart" class="marker composition class" refX="18" refY="7" markerWidth="190" markerHeight="240" orient="auto"><path d="M 18,7 L9,13 L1,7 L9,1 Z"/></marker></defs><defs><marker id="my-svg_class-compositionEnd" class="marker composition class" refX="1" refY="7" markerWidth="20" markerHeight="28" orient="auto"><path d="M 18,7 L9,13 L1,7 L9,1 Z"/></marker></defs><defs><marker id="my-svg_class-compositionStart-margin" class="marker composition class" refX="15" refY="7" markerWidth="190" markerHeight="240" orient="auto" markerUnits="userSpaceOnUse"><path viewBox="0 0 15 15" d="M 18,7 L9,13 L1,7 L9,1 Z" style="stroke-width: 0;"/></marker></defs><defs><marker id="my-svg_class-compositionEnd-margin" class="marker composition class" refX="3.5" refY="7" markerWidth="20" markerHeight="28" orient="auto" markerUnits="userSpaceOnUse"><path d="M 18,7 L9,13 L1,7 L9,1 Z" style="stroke-width: 0;"/></marker></defs><defs><marker id="my-svg_class-dependencyStart" class="marker dependency class" refX="6" refY="7" markerWidth="190" markerHeight="240" orient="auto"><path d="M 5,7 L9,13 L1,7 L9,1 Z"/></marker></defs><defs><marker id="my-svg_class-dependencyEnd" class="marker dependency class" refX="13" refY="7" markerWidth="20" markerHeight="28" orient="auto"><path d="M 18,7 L9,13 L14,7 L9,1 Z"/></marker></defs><defs><marker id="my-svg_class-dependencyStart-margin" class="marker dependency class" refX="4" refY="7" markerWidth="190" markerHeight="240" orient="auto" markerUnits="userSpaceOnUse"><path d="M 5,7 L9,13 L1,7 L9,1 Z" style="stroke-width: 0;"/></marker></defs><defs><marker id="my-svg_class-dependencyEnd-margin" class="marker dependency class" refX="16" refY="7" markerWidth="20" markerHeight="28" orient="auto" markerUnits="userSpaceOnUse"><path d="M 18,7 L9,13 L14,7 L9,1 Z" style="stroke-width: 0;"/></marker></defs><defs><marker id="my-svg_class-lollipopStart" class="marker lollipop class" refX="13" refY="7" markerWidth="190" markerHeight="240" orient="auto"><circle fill="transparent" cx="7" cy="7" r="6"/></marker></defs><defs><marker id="my-svg_class-lollipopEnd" class="marker lollipop class" refX="1" refY="7" markerWidth="190" markerHeight="240" orient="auto"><circle fill="transparent" cx="7" cy="7" r="6"/></marker></defs><defs><marker id="my-svg_class-lollipopStart-margin" class="marker lollipop class" refX="13" refY="7" markerWidth="190" markerHeight="240" orient="auto" markerUnits="userSpaceOnUse"><circle fill="transparent" cx="7" cy="7" r="6" stroke-width="2"/></marker></defs><defs><marker id="my-svg_class-lollipopEnd-margin" class="marker lollipop class" refX="1" refY="7" markerWidth="190" markerHeight="240" orient="auto" markerUnits="userSpaceOnUse"><circle fill="transparent" cx="7" cy="7" r="6" stroke-width="2"/></marker></defs><g class="root"><g class="clusters"/><g class="edgePaths"><path d="M233.565,68.533L240.268,65.444C246.97,62.355,260.376,56.178,278.579,53.089C296.781,50,319.781,50,331.281,50L342.781,50" id="my-svg-id_JdbcRedisRepository_JdbcLettuceRepository_1" class="edge-thickness-normal edge-pattern-solid relation" style=";;;" data-edge="true" data-et="edge" data-id="id_JdbcRedisRepository_JdbcLettuceRepository_1" data-points="W3sieCI6MjE3Ljg5ODQzNzUsInkiOjc1Ljc1MjMzNzQ1Mjk4MjI2fSx7IngiOjI3My43ODEyNSwieSI6NTB9LHsieCI6MzQyLjc4MTI1LCJ5Ijo1MH1d" data-look="classic" marker-start="url(#my-svg_class-extensionStart)"/><path d="M233.565,165.467L240.268,168.556C246.97,171.645,260.376,177.822,277.933,180.911C295.49,184,317.198,184,328.052,184L338.906,184" id="my-svg-id_JdbcRedisRepository_JdbcRedissonRepository_2" class="edge-thickness-normal edge-pattern-solid relation" style=";;;" data-edge="true" data-et="edge" data-id="id_JdbcRedisRepository_JdbcRedissonRepository_2" data-points="W3sieCI6MjE3Ljg5ODQzNzUsInkiOjE1OC4yNDc2NjI1NDcwMTc3NH0seyJ4IjoyNzMuNzgxMjUsInkiOjE4NH0seyJ4IjozMzguOTA2MjUsInkiOjE4NH1d" data-look="classic" marker-start="url(#my-svg_class-extensionStart)"/><path d="M235.198,335.78L241.628,332.817C248.059,329.854,260.92,323.927,272.163,320.963C283.406,318,293.031,318,297.844,318L302.656,318" id="my-svg-id_SuspendJdbcRedisRepository_SuspendedJdbcLettuceRepository_3" class="edge-thickness-normal edge-pattern-solid relation" style=";;;" data-edge="true" data-et="edge" data-id="id_SuspendJdbcRedisRepository_SuspendedJdbcLettuceRepository_3" data-points="W3sieCI6MjE5LjUzMTAxNjc5MTA0NDc4LCJ5IjozNDN9LHsieCI6MjczLjc4MTI1LCJ5IjozMTh9LHsieCI6MzAyLjY1NjI1LCJ5IjozMTh9XQ==" data-look="classic" marker-start="url(#my-svg_class-extensionStart)"/><path d="M235.198,434.22L241.628,437.183C248.059,440.146,260.92,446.073,271.517,449.037C282.115,452,290.448,452,294.615,452L298.781,452" id="my-svg-id_SuspendJdbcRedisRepository_SuspendedJdbcRedissonRepository_4" class="edge-thickness-normal edge-pattern-solid relation" style=";;;" data-edge="true" data-et="edge" data-id="id_SuspendJdbcRedisRepository_SuspendedJdbcRedissonRepository_4" data-points="W3sieCI6MjE5LjUzMTAxNjc5MTA0NDc4LCJ5Ijo0Mjd9LHsieCI6MjczLjc4MTI1LCJ5Ijo0NTJ9LHsieCI6Mjk4Ljc4MTI1LCJ5Ijo0NTJ9XQ==" data-look="classic" marker-start="url(#my-svg_class-extensionStart)"/><path d="M235.198,603.78L241.628,600.817C248.059,597.854,260.92,591.927,277.965,588.963C295.01,586,316.24,586,326.854,586L337.469,586" id="my-svg-id_R2dbcRedisRepository_R2dbcLettuceRepository_5" class="edge-thickness-normal edge-pattern-solid relation" style=";;;" data-edge="true" data-et="edge" data-id="id_R2dbcRedisRepository_R2dbcLettuceRepository_5" data-points="W3sieCI6MjE5LjUzMTAxNjc5MTA0NDc4LCJ5Ijo2MTF9LHsieCI6MjczLjc4MTI1LCJ5Ijo1ODZ9LHsieCI6MzM3LjQ2ODc1LCJ5Ijo1ODZ9XQ==" data-look="classic" marker-start="url(#my-svg_class-extensionStart)"/><path d="M235.198,702.22L241.628,705.183C248.059,708.146,260.92,714.073,277.319,717.037C293.719,720,313.656,720,323.625,720L333.594,720" id="my-svg-id_R2dbcRedisRepository_R2dbcRedissonRepository_6" class="edge-thickness-normal edge-pattern-solid relation" style=";;;" data-edge="true" data-et="edge" data-id="id_R2dbcRedisRepository_R2dbcRedissonRepository_6" data-points="W3sieCI6MjE5LjUzMTAxNjc5MTA0NDc4LCJ5Ijo2OTV9LHsieCI6MjczLjc4MTI1LCJ5Ijo3MjB9LHsieCI6MzMzLjU5Mzc1LCJ5Ijo3MjB9XQ==" data-look="classic" marker-start="url(#my-svg_class-extensionStart)"/></g><g class="edgeLabels"><g class="edgeLabel"><g class="label" data-id="id_JdbcRedisRepository_JdbcLettuceRepository_1" transform="translate(0, 0)"><foreignObject width="0" height="0"><div xmlns="http://www.w3.org/1999/xhtml" class="labelBkg" style="display: table-cell; white-space: nowrap; line-height: 1.5; max-width: 200px; text-align: center;"><span class="edgeLabel"></span></div></foreignObject></g></g><g class="edgeLabel"><g class="label" data-id="id_JdbcRedisRepository_JdbcRedissonRepository_2" transform="translate(0, 0)"><foreignObject width="0" height="0"><div xmlns="http://www.w3.org/1999/xhtml" class="labelBkg" style="display: table-cell; white-space: nowrap; line-height: 1.5; max-width: 200px; text-align: center;"><span class="edgeLabel"></span></div></foreignObject></g></g><g class="edgeLabel"><g class="label" data-id="id_SuspendJdbcRedisRepository_SuspendedJdbcLettuceRepository_3" transform="translate(0, 0)"><foreignObject width="0" height="0"><div xmlns="http://www.w3.org/1999/xhtml" class="labelBkg" style="display: table-cell; white-space: nowrap; line-height: 1.5; max-width: 200px; text-align: center;"><span class="edgeLabel"></span></div></foreignObject></g></g><g class="edgeLabel"><g class="label" data-id="id_SuspendJdbcRedisRepository_SuspendedJdbcRedissonRepository_4" transform="translate(0, 0)"><foreignObject width="0" height="0"><div xmlns="http://www.w3.org/1999/xhtml" class="labelBkg" style="display: table-cell; white-space: nowrap; line-height: 1.5; max-width: 200px; text-align: center;"><span class="edgeLabel"></span></div></foreignObject></g></g><g class="edgeLabel"><g class="label" data-id="id_R2dbcRedisRepository_R2dbcLettuceRepository_5" transform="translate(0, 0)"><foreignObject width="0" height="0"><div xmlns="http://www.w3.org/1999/xhtml" class="labelBkg" style="display: table-cell; white-space: nowrap; line-height: 1.5; max-width: 200px; text-align: center;"><span class="edgeLabel"></span></div></foreignObject></g></g><g class="edgeLabel"><g class="label" data-id="id_R2dbcRedisRepository_R2dbcRedissonRepository_6" transform="translate(0, 0)"><foreignObject width="0" height="0"><div xmlns="http://www.w3.org/1999/xhtml" class="labelBkg" style="display: table-cell; white-space: nowrap; line-height: 1.5; max-width: 200px; text-align: center;"><span class="edgeLabel"></span></div></foreignObject></g></g></g><g class="nodes"><g class="node default" id="my-svg-classId-JdbcRedisRepository-0" data-look="classic" transform="translate(128.390625, 117)"><g class="basic label-container outer-path"><path d="M-89.5078125 -42 L89.5078125 -42 L89.5078125 42 L-89.5078125 42" stroke="none" stroke-width="0" fill="#EAF7EF" style="fill:#EAF7EF;stroke:#58A978;color:#102033;stroke-width:1.5px"/><path d="M-89.5078125 -42 C-48.25764715355944 -42, -7.007481807118879 -42, 89.5078125 -42 M-89.5078125 -42 C-52.05191591544183 -42, -14.596019330883664 -42, 89.5078125 -42 M89.5078125 -42 C89.5078125 -19.042785685852827, 89.5078125 3.9144286282943455, 89.5078125 42 M89.5078125 -42 C89.5078125 -13.439074524358698, 89.5078125 15.121850951282603, 89.5078125 42 M89.5078125 42 C27.635944732844422 42, -34.235923034311156 42, -89.5078125 42 M89.5078125 42 C38.351381733768264 42, -12.805049032463472 42, -89.5078125 42 M-89.5078125 42 C-89.5078125 10.504767243383721, -89.5078125 -20.990465513232557, -89.5078125 -42 M-89.5078125 42 C-89.5078125 22.141536738676482, -89.5078125 2.283073477352964, -89.5078125 -42" stroke="#58A978" stroke-width="1.5" fill="none" stroke-dasharray="0 0" style="fill:#EAF7EF;stroke:#58A978;color:#102033;stroke-width:1.5px"/></g><g class="annotation-group text" transform="translate(0, -18)"/><g class="label-group text" transform="translate(-77.5078125, -18)"><g class="label" style="font-weight: bolder" transform="translate(0,-12)"><foreignObject width="155.015625" height="24"><div xmlns="http://www.w3.org/1999/xhtml" style="display: table-cell; white-space: nowrap; line-height: 1.5; max-width: 186px; text-align: center;"><span class="nodeLabel markdown-node-label" style="fill:#EAF7EF;stroke:#58A978;color:#102033;stroke-width:1.5px"><p>JdbcRedisRepository</p></span></div></foreignObject></g></g><g class="members-group text" transform="translate(-77.5078125, 30)"/><g class="methods-group text" transform="translate(-77.5078125, 60)"/><g class="divider" style="fill:#EAF7EF;stroke:#58A978;color:#102033;stroke-width:1.5px"><path d="M-89.5078125 6 C-47.069037240446306 6.000237067436206, -4.630261980892612 6.000474134872412, 89.5078125 6.001 M-89.5078125 6 C-36.5271902303734 6.000295955295911, 16.4534320392532 6.000591910591823, 89.5078125 6.001" stroke="#58A978" stroke-width="1.5" fill="none" stroke-dasharray="0 0" style="fill:#EAF7EF;stroke:#58A978;color:#102033;stroke-width:1.5px"/></g><g class="divider" style="fill:#EAF7EF;stroke:#58A978;color:#102033;stroke-width:1.5px"><path d="M-89.5078125 24 C-31.370719074205482 24.000324759882975, 26.766374351589036 24.00064951976595, 89.5078125 24.001 M-89.5078125 24 C-18.704163871396844 24.000395516584817, 52.09948475720631 24.00079103316963, 89.5078125 24.001" stroke="#58A978" stroke-width="1.5" fill="none" stroke-dasharray="0 0" style="fill:#EAF7EF;stroke:#58A978;color:#102033;stroke-width:1.5px"/></g></g><g class="node default" id="my-svg-classId-JdbcLettuceRepository-1" data-look="classic" transform="translate(441.109375, 50)"><g class="basic label-container outer-path"><path d="M-98.328125 -42 L98.328125 -42 L98.328125 42 L-98.328125 42" stroke="none" stroke-width="0" fill="#EAF7EF" style="fill:#EAF7EF;stroke:#58A978;color:#102033;stroke-width:1.5px"/><path d="M-98.328125 -42 C-54.8733348425033 -42, -11.418544685006594 -42, 98.328125 -42 M-98.328125 -42 C-41.39968565415854 -42, 15.528753691682923 -42, 98.328125 -42 M98.328125 -42 C98.328125 -21.14186878179053, 98.328125 -0.28373756358106306, 98.328125 42 M98.328125 -42 C98.328125 -19.815866301085645, 98.328125 2.36826739782871, 98.328125 42 M98.328125 42 C38.55887767141277 42, -21.210369657174454 42, -98.328125 42 M98.328125 42 C44.47248590958309 42, -9.383153180833816 42, -98.328125 42 M-98.328125 42 C-98.328125 14.346665467769288, -98.328125 -13.306669064461424, -98.328125 -42 M-98.328125 42 C-98.328125 21.61824594241794, -98.328125 1.2364918848358784, -98.328125 -42" stroke="#58A978" stroke-width="1.5" fill="none" stroke-dasharray="0 0" style="fill:#EAF7EF;stroke:#58A978;color:#102033;stroke-width:1.5px"/></g><g class="annotation-group text" transform="translate(0, -18)"/><g class="label-group text" transform="translate(-86.328125, -18)"><g class="label" style="font-weight: bolder" transform="translate(0,-12)"><foreignObject width="172.65625" height="24"><div xmlns="http://www.w3.org/1999/xhtml" style="display: table-cell; white-space: nowrap; line-height: 1.5; max-width: 198px; text-align: center;"><span class="nodeLabel markdown-node-label" style="fill:#EAF7EF;stroke:#58A978;color:#102033;stroke-width:1.5px"><p>JdbcLettuceRepository</p></span></div></foreignObject></g></g><g class="members-group text" transform="translate(-86.328125, 30)"/><g class="methods-group text" transform="translate(-86.328125, 60)"/><g class="divider" style="fill:#EAF7EF;stroke:#58A978;color:#102033;stroke-width:1.5px"><path d="M-98.328125 6 C-29.805381361254433 6.000348439185832, 38.717362277491134 6.000696878371664, 98.328125 6.001 M-98.328125 6 C-30.78737274490061 6.0003434457448215, 36.75337951019878 6.000686891489644, 98.328125 6.001" stroke="#58A978" stroke-width="1.5" fill="none" stroke-dasharray="0 0" style="fill:#EAF7EF;stroke:#58A978;color:#102033;stroke-width:1.5px"/></g><g class="divider" style="fill:#EAF7EF;stroke:#58A978;color:#102033;stroke-width:1.5px"><path d="M-98.328125 24 C-52.83070852491627 24.00023135504961, -7.3332920498325365 24.000462710099224, 98.328125 24.001 M-98.328125 24 C-34.97259789409172 24.00032216381176, 28.38292921181656 24.000644327623515, 98.328125 24.001" stroke="#58A978" stroke-width="1.5" fill="none" stroke-dasharray="0 0" style="fill:#EAF7EF;stroke:#58A978;color:#102033;stroke-width:1.5px"/></g></g><g class="node default" id="my-svg-classId-JdbcRedissonRepository-2" data-look="classic" transform="translate(441.109375, 184)"><g class="basic label-container outer-path"><path d="M-102.203125 -42 L102.203125 -42 L102.203125 42 L-102.203125 42" stroke="none" stroke-width="0" fill="#EAF7EF" style="fill:#EAF7EF;stroke:#58A978;color:#102033;stroke-width:1.5px"/><path d="M-102.203125 -42 C-30.131889064544325 -42, 41.93934687091135 -42, 102.203125 -42 M-102.203125 -42 C-27.232230363680515 -42, 47.73866427263897 -42, 102.203125 -42 M102.203125 -42 C102.203125 -24.27613021593497, 102.203125 -6.552260431869939, 102.203125 42 M102.203125 -42 C102.203125 -19.457025946678407, 102.203125 3.085948106643187, 102.203125 42 M102.203125 42 C45.71714460322053 42, -10.768835793558935 42, -102.203125 42 M102.203125 42 C58.611468684918975 42, 15.01981236983795 42, -102.203125 42 M-102.203125 42 C-102.203125 21.53428272509099, -102.203125 1.0685654501819783, -102.203125 -42 M-102.203125 42 C-102.203125 15.183744149023951, -102.203125 -11.632511701952097, -102.203125 -42" stroke="#58A978" stroke-width="1.5" fill="none" stroke-dasharray="0 0" style="fill:#EAF7EF;stroke:#58A978;color:#102033;stroke-width:1.5px"/></g><g class="annotation-group text" transform="translate(0, -18)"/><g class="label-group text" transform="translate(-90.203125, -18)"><g class="label" style="font-weight: bolder" transform="translate(0,-12)"><foreignObject width="180.40625" height="24"><div xmlns="http://www.w3.org/1999/xhtml" style="display: table-cell; white-space: nowrap; line-height: 1.5; max-width: 208px; text-align: center;"><span class="nodeLabel markdown-node-label" style="fill:#EAF7EF;stroke:#58A978;color:#102033;stroke-width:1.5px"><p>JdbcRedissonRepository</p></span></div></foreignObject></g></g><g class="members-group text" transform="translate(-90.203125, 30)"/><g class="methods-group text" transform="translate(-90.203125, 60)"/><g class="divider" style="fill:#EAF7EF;stroke:#58A978;color:#102033;stroke-width:1.5px"><path d="M-102.203125 6 C-39.98006496679422 6.000304408793925, 22.242995066411567 6.00060881758785, 102.203125 6.001 M-102.203125 6 C-41.233107582396926 6.000298278635891, 19.73690983520615 6.000596557271782, 102.203125 6.001" stroke="#58A978" stroke-width="1.5" fill="none" stroke-dasharray="0 0" style="fill:#EAF7EF;stroke:#58A978;color:#102033;stroke-width:1.5px"/></g><g class="divider" style="fill:#EAF7EF;stroke:#58A978;color:#102033;stroke-width:1.5px"><path d="M-102.203125 24 C-53.67710113396847 24.000237399902723, -5.151077267936941 24.000474799805446, 102.203125 24.001 M-102.203125 24 C-32.95080636620152 24.000338797461595, 36.30151226759696 24.000677594923186, 102.203125 24.001" stroke="#58A978" stroke-width="1.5" fill="none" stroke-dasharray="0 0" style="fill:#EAF7EF;stroke:#58A978;color:#102033;stroke-width:1.5px"/></g></g><g class="node default" id="my-svg-classId-SuspendJdbcRedisRepository-3" data-look="classic" transform="translate(128.390625, 385)"><g class="basic label-container outer-path"><path d="M-120.390625 -42 L120.390625 -42 L120.390625 42 L-120.390625 42" stroke="none" stroke-width="0" fill="#EAF7EF" style="fill:#EAF7EF;stroke:#58A978;color:#102033;stroke-width:1.5px"/><path d="M-120.390625 -42 C-60.5820923787755 -42, -0.7735597575509985 -42, 120.390625 -42 M-120.390625 -42 C-27.135507959943723 -42, 66.11960908011255 -42, 120.390625 -42 M120.390625 -42 C120.390625 -11.530445524492787, 120.390625 18.939108951014425, 120.390625 42 M120.390625 -42 C120.390625 -14.084298229173182, 120.390625 13.831403541653636, 120.390625 42 M120.390625 42 C42.82877213577528 42, -34.73308072844944 42, -120.390625 42 M120.390625 42 C55.17584130247782 42, -10.038942395044359 42, -120.390625 42 M-120.390625 42 C-120.390625 14.690123999993713, -120.390625 -12.619752000012575, -120.390625 -42 M-120.390625 42 C-120.390625 19.255927653695018, -120.390625 -3.488144692609964, -120.390625 -42" stroke="#58A978" stroke-width="1.5" fill="none" stroke-dasharray="0 0" style="fill:#EAF7EF;stroke:#58A978;color:#102033;stroke-width:1.5px"/></g><g class="annotation-group text" transform="translate(0, -18)"/><g class="label-group text" transform="translate(-108.390625, -18)"><g class="label" style="font-weight: bolder" transform="translate(0,-12)"><foreignObject width="216.78125" height="24"><div xmlns="http://www.w3.org/1999/xhtml" style="display: table-cell; white-space: nowrap; line-height: 1.5; max-width: 240px; text-align: center;"><span class="nodeLabel markdown-node-label" style="fill:#EAF7EF;stroke:#58A978;color:#102033;stroke-width:1.5px"><p>SuspendJdbcRedisRepository</p></span></div></foreignObject></g></g><g class="members-group text" transform="translate(-108.390625, 30)"/><g class="methods-group text" transform="translate(-108.390625, 60)"/><g class="divider" style="fill:#EAF7EF;stroke:#58A978;color:#102033;stroke-width:1.5px"><path d="M-120.390625 6 C-50.006653756845026 6.00029231500062, 20.37731748630995 6.000584630001241, 120.390625 6.001 M-120.390625 6 C-28.679697638119563 6.00038088899099, 63.03122972376087 6.000761777981981, 120.390625 6.001" stroke="#58A978" stroke-width="1.5" fill="none" stroke-dasharray="0 0" style="fill:#EAF7EF;stroke:#58A978;color:#102033;stroke-width:1.5px"/></g><g class="divider" style="fill:#EAF7EF;stroke:#58A978;color:#102033;stroke-width:1.5px"><path d="M-120.390625 24 C-69.65592567742564 24.00021070867986, -18.9212263548513 24.00042141735972, 120.390625 24.001 M-120.390625 24 C-31.491086401441734 24.00036921287932, 57.40845219711653 24.00073842575864, 120.390625 24.001" stroke="#58A978" stroke-width="1.5" fill="none" stroke-dasharray="0 0" style="fill:#EAF7EF;stroke:#58A978;color:#102033;stroke-width:1.5px"/></g></g><g class="node default" id="my-svg-classId-SuspendedJdbcLettuceRepository-4" data-look="classic" transform="translate(441.109375, 318)"><g class="basic label-container outer-path"><path d="M-138.453125 -42 L138.453125 -42 L138.453125 42 L-138.453125 42" stroke="none" stroke-width="0" fill="#EAF7EF" style="fill:#EAF7EF;stroke:#58A978;color:#102033;stroke-width:1.5px"/><path d="M-138.453125 -42 C-53.50896742243161 -42, 31.43519015513678 -42, 138.453125 -42 M-138.453125 -42 C-69.20692558922481 -42, 0.03927382155038117 -42, 138.453125 -42 M138.453125 -42 C138.453125 -19.23368348057514, 138.453125 3.532633038849717, 138.453125 42 M138.453125 -42 C138.453125 -20.499967122030505, 138.453125 1.0000657559389907, 138.453125 42 M138.453125 42 C41.121229512985636 42, -56.21066597402873 42, -138.453125 42 M138.453125 42 C53.35223736617422 42, -31.748650267651556 42, -138.453125 42 M-138.453125 42 C-138.453125 16.540364544839292, -138.453125 -8.919270910321416, -138.453125 -42 M-138.453125 42 C-138.453125 16.665579121690893, -138.453125 -8.668841756618214, -138.453125 -42" stroke="#58A978" stroke-width="1.5" fill="none" stroke-dasharray="0 0" style="fill:#EAF7EF;stroke:#58A978;color:#102033;stroke-width:1.5px"/></g><g class="annotation-group text" transform="translate(0, -18)"/><g class="label-group text" transform="translate(-126.453125, -18)"><g class="label" style="font-weight: bolder" transform="translate(0,-12)"><foreignObject width="252.90625" height="24"><div xmlns="http://www.w3.org/1999/xhtml" style="display: table-cell; white-space: nowrap; line-height: 1.5; max-width: 267px; text-align: center;"><span class="nodeLabel markdown-node-label" style="fill:#EAF7EF;stroke:#58A978;color:#102033;stroke-width:1.5px"><p>SuspendedJdbcLettuceRepository</p></span></div></foreignObject></g></g><g class="members-group text" transform="translate(-126.453125, 30)"/><g class="methods-group text" transform="translate(-126.453125, 60)"/><g class="divider" style="fill:#EAF7EF;stroke:#58A978;color:#102033;stroke-width:1.5px"><path d="M-138.453125 6 C-44.44897830336778 6.000339480046755, 49.55516839326444 6.000678960093509, 138.453125 6.001 M-138.453125 6 C-36.03030476200067 6.000369882659702, 66.39251547599866 6.000739765319404, 138.453125 6.001" stroke="#58A978" stroke-width="1.5" fill="none" stroke-dasharray="0 0" style="fill:#EAF7EF;stroke:#58A978;color:#102033;stroke-width:1.5px"/></g><g class="divider" style="fill:#EAF7EF;stroke:#58A978;color:#102033;stroke-width:1.5px"><path d="M-138.453125 24 C-35.42656211982741 24.00037206297395, 67.60000076034518 24.0007441259479, 138.453125 24.001 M-138.453125 24 C-52.50895407430343 24.000310372810024, 33.435216851393136 24.000620745620047, 138.453125 24.001" stroke="#58A978" stroke-width="1.5" fill="none" stroke-dasharray="0 0" style="fill:#EAF7EF;stroke:#58A978;color:#102033;stroke-width:1.5px"/></g></g><g class="node default" id="my-svg-classId-SuspendedJdbcRedissonRepository-5" data-look="classic" transform="translate(441.109375, 452)"><g class="basic label-container outer-path"><path d="M-142.328125 -42 L142.328125 -42 L142.328125 42 L-142.328125 42" stroke="none" stroke-width="0" fill="#EAF7EF" style="fill:#EAF7EF;stroke:#58A978;color:#102033;stroke-width:1.5px"/><path d="M-142.328125 -42 C-74.84328933322242 -42, -7.358453666444831 -42, 142.328125 -42 M-142.328125 -42 C-49.001727232037965 -42, 44.32467053592407 -42, 142.328125 -42 M142.328125 -42 C142.328125 -16.697715641430324, 142.328125 8.604568717139351, 142.328125 42 M142.328125 -42 C142.328125 -9.250091231271021, 142.328125 23.499817537457957, 142.328125 42 M142.328125 42 C59.658846604193926 42, -23.01043179161215 42, -142.328125 42 M142.328125 42 C37.56992942995461 42, -67.18826614009078 42, -142.328125 42 M-142.328125 42 C-142.328125 25.104425964295775, -142.328125 8.20885192859155, -142.328125 -42 M-142.328125 42 C-142.328125 15.817662162758694, -142.328125 -10.364675674482612, -142.328125 -42" stroke="#58A978" stroke-width="1.5" fill="none" stroke-dasharray="0 0" style="fill:#EAF7EF;stroke:#58A978;color:#102033;stroke-width:1.5px"/></g><g class="annotation-group text" transform="translate(0, -18)"/><g class="label-group text" transform="translate(-130.328125, -18)"><g class="label" style="font-weight: bolder" transform="translate(0,-12)"><foreignObject width="260.65625" height="24"><div xmlns="http://www.w3.org/1999/xhtml" style="display: table-cell; white-space: nowrap; line-height: 1.5; max-width: 278px; text-align: center;"><span class="nodeLabel markdown-node-label" style="fill:#EAF7EF;stroke:#58A978;color:#102033;stroke-width:1.5px"><p>SuspendedJdbcRedissonRepository</p></span></div></foreignObject></g></g><g class="members-group text" transform="translate(-130.328125, 30)"/><g class="methods-group text" transform="translate(-130.328125, 60)"/><g class="divider" style="fill:#EAF7EF;stroke:#58A978;color:#102033;stroke-width:1.5px"><path d="M-142.328125 6 C-60.782194677331404 6.000286471596259, 20.763735645337192 6.000572943192519, 142.328125 6.001 M-142.328125 6 C-75.17088894388881 6.000235923982193, -8.013652887777624 6.000471847964386, 142.328125 6.001" stroke="#58A978" stroke-width="1.5" fill="none" stroke-dasharray="0 0" style="fill:#EAF7EF;stroke:#58A978;color:#102033;stroke-width:1.5px"/></g><g class="divider" style="fill:#EAF7EF;stroke:#58A978;color:#102033;stroke-width:1.5px"><path d="M-142.328125 24 C-30.132691664043207 24.00039414357962, 82.06274167191359 24.00078828715924, 142.328125 24.001 M-142.328125 24 C-46.658638454635664 24.000336087777963, 49.01084809072867 24.000672175555923, 142.328125 24.001" stroke="#58A978" stroke-width="1.5" fill="none" stroke-dasharray="0 0" style="fill:#EAF7EF;stroke:#58A978;color:#102033;stroke-width:1.5px"/></g></g><g class="node default" id="my-svg-classId-R2dbcRedisRepository-6" data-look="classic" transform="translate(128.390625, 653)"><g class="basic label-container outer-path"><path d="M-94.8203125 -42 L94.8203125 -42 L94.8203125 42 L-94.8203125 42" stroke="none" stroke-width="0" fill="#EAF7EF" style="fill:#EAF7EF;stroke:#58A978;color:#102033;stroke-width:1.5px"/><path d="M-94.8203125 -42 C-29.8646079384378 -42, 35.0910966231244 -42, 94.8203125 -42 M-94.8203125 -42 C-25.66446181275755 -42, 43.4913888744849 -42, 94.8203125 -42 M94.8203125 -42 C94.8203125 -8.853740400617355, 94.8203125 24.29251919876529, 94.8203125 42 M94.8203125 -42 C94.8203125 -17.56498549817706, 94.8203125 6.870029003645882, 94.8203125 42 M94.8203125 42 C53.46636186897796 42, 12.112411237955925 42, -94.8203125 42 M94.8203125 42 C42.11927319582703 42, -10.581766108345946 42, -94.8203125 42 M-94.8203125 42 C-94.8203125 10.884394171497554, -94.8203125 -20.23121165700489, -94.8203125 -42 M-94.8203125 42 C-94.8203125 20.43386671801106, -94.8203125 -1.132266563977879, -94.8203125 -42" stroke="#58A978" stroke-width="1.5" fill="none" stroke-dasharray="0 0" style="fill:#EAF7EF;stroke:#58A978;color:#102033;stroke-width:1.5px"/></g><g class="annotation-group text" transform="translate(0, -18)"/><g class="label-group text" transform="translate(-82.8203125, -18)"><g class="label" style="font-weight: bolder" transform="translate(0,-12)"><foreignObject width="165.640625" height="24"><div xmlns="http://www.w3.org/1999/xhtml" style="display: table-cell; white-space: nowrap; line-height: 1.5; max-width: 198px; text-align: center;"><span class="nodeLabel markdown-node-label" style="fill:#EAF7EF;stroke:#58A978;color:#102033;stroke-width:1.5px"><p>R2dbcRedisRepository</p></span></div></foreignObject></g></g><g class="members-group text" transform="translate(-82.8203125, 30)"/><g class="methods-group text" transform="translate(-82.8203125, 60)"/><g class="divider" style="fill:#EAF7EF;stroke:#58A978;color:#102033;stroke-width:1.5px"><path d="M-94.8203125 6 C-27.686109641181687 6.00035400749633, 39.448093217636625 6.000708014992662, 94.8203125 6.001 M-94.8203125 6 C-53.88443771300529 6.0002158602608855, -12.948562926010581 6.000431720521771, 94.8203125 6.001" stroke="#58A978" stroke-width="1.5" fill="none" stroke-dasharray="0 0" style="fill:#EAF7EF;stroke:#58A978;color:#102033;stroke-width:1.5px"/></g><g class="divider" style="fill:#EAF7EF;stroke:#58A978;color:#102033;stroke-width:1.5px"><path d="M-94.8203125 24 C-22.55555538020424 24.00038106158488, 49.70920173959152 24.000762123169757, 94.8203125 24.001 M-94.8203125 24 C-21.964758643852903 24.000384176933906, 50.890795212294194 24.00076835386781, 94.8203125 24.001" stroke="#58A978" stroke-width="1.5" fill="none" stroke-dasharray="0 0" style="fill:#EAF7EF;stroke:#58A978;color:#102033;stroke-width:1.5px"/></g></g><g class="node default" id="my-svg-classId-R2dbcLettuceRepository-7" data-look="classic" transform="translate(441.109375, 586)"><g class="basic label-container outer-path"><path d="M-103.640625 -42 L103.640625 -42 L103.640625 42 L-103.640625 42" stroke="none" stroke-width="0" fill="#EAF7EF" style="fill:#EAF7EF;stroke:#58A978;color:#102033;stroke-width:1.5px"/><path d="M-103.640625 -42 C-36.503243956762645 -42, 30.63413708647471 -42, 103.640625 -42 M-103.640625 -42 C-52.99972058085877 -42, -2.3588161617175416 -42, 103.640625 -42 M103.640625 -42 C103.640625 -24.4924927478327, 103.640625 -6.9849854956653985, 103.640625 42 M103.640625 -42 C103.640625 -11.796163745506473, 103.640625 18.407672508987055, 103.640625 42 M103.640625 42 C38.84596261743215 42, -25.9486997651357 42, -103.640625 42 M103.640625 42 C33.67311294798456 42, -36.29439910403087 42, -103.640625 42 M-103.640625 42 C-103.640625 14.523836816286288, -103.640625 -12.952326367427425, -103.640625 -42 M-103.640625 42 C-103.640625 15.516843035650734, -103.640625 -10.966313928698533, -103.640625 -42" stroke="#58A978" stroke-width="1.5" fill="none" stroke-dasharray="0 0" style="fill:#EAF7EF;stroke:#58A978;color:#102033;stroke-width:1.5px"/></g><g class="annotation-group text" transform="translate(0, -18)"/><g class="label-group text" transform="translate(-91.640625, -18)"><g class="label" style="font-weight: bolder" transform="translate(0,-12)"><foreignObject width="183.28125" height="24"><div xmlns="http://www.w3.org/1999/xhtml" style="display: table-cell; white-space: nowrap; line-height: 1.5; max-width: 210px; text-align: center;"><span class="nodeLabel markdown-node-label" style="fill:#EAF7EF;stroke:#58A978;color:#102033;stroke-width:1.5px"><p>R2dbcLettuceRepository</p></span></div></foreignObject></g></g><g class="members-group text" transform="translate(-91.640625, 30)"/><g class="methods-group text" transform="translate(-91.640625, 60)"/><g class="divider" style="fill:#EAF7EF;stroke:#58A978;color:#102033;stroke-width:1.5px"><path d="M-103.640625 6 C-48.494987449337955 6.000266042575248, 6.650650101324089 6.000532085150496, 103.640625 6.001 M-103.640625 6 C-46.535376545488155 6.000275496449652, 10.56987190902369 6.000550992899305, 103.640625 6.001" stroke="#58A978" stroke-width="1.5" fill="none" stroke-dasharray="0 0" style="fill:#EAF7EF;stroke:#58A978;color:#102033;stroke-width:1.5px"/></g><g class="divider" style="fill:#EAF7EF;stroke:#58A978;color:#102033;stroke-width:1.5px"><path d="M-103.640625 24 C-44.9701720989695 24.000283047564125, 13.700280802061002 24.00056609512825, 103.640625 24.001 M-103.640625 24 C-50.56516585403684 24.00025605528308, 2.510293291926317 24.00051211056616, 103.640625 24.001" stroke="#58A978" stroke-width="1.5" fill="none" stroke-dasharray="0 0" style="fill:#EAF7EF;stroke:#58A978;color:#102033;stroke-width:1.5px"/></g></g><g class="node default" id="my-svg-classId-R2dbcRedissonRepository-8" data-look="classic" transform="translate(441.109375, 720)"><g class="basic label-container outer-path"><path d="M-107.515625 -42 L107.515625 -42 L107.515625 42 L-107.515625 42" stroke="none" stroke-width="0" fill="#EAF7EF" style="fill:#EAF7EF;stroke:#58A978;color:#102033;stroke-width:1.5px"/><path d="M-107.515625 -42 C-52.597874610184974 -42, 2.3198757796300526 -42, 107.515625 -42 M-107.515625 -42 C-43.14591847943316 -42, 21.223788041133673 -42, 107.515625 -42 M107.515625 -42 C107.515625 -9.725985678476974, 107.515625 22.548028643046052, 107.515625 42 M107.515625 -42 C107.515625 -22.655199464539827, 107.515625 -3.3103989290796534, 107.515625 42 M107.515625 42 C28.759512796200255 42, -49.99659940759949 42, -107.515625 42 M107.515625 42 C30.269870390003447 42, -46.975884219993105 42, -107.515625 42 M-107.515625 42 C-107.515625 19.041935293242993, -107.515625 -3.916129413514014, -107.515625 -42 M-107.515625 42 C-107.515625 24.471530780558908, -107.515625 6.9430615611178155, -107.515625 -42" stroke="#58A978" stroke-width="1.5" fill="none" stroke-dasharray="0 0" style="fill:#EAF7EF;stroke:#58A978;color:#102033;stroke-width:1.5px"/></g><g class="annotation-group text" transform="translate(0, -18)"/><g class="label-group text" transform="translate(-95.515625, -18)"><g class="label" style="font-weight: bolder" transform="translate(0,-12)"><foreignObject width="191.03125" height="24"><div xmlns="http://www.w3.org/1999/xhtml" style="display: table-cell; white-space: nowrap; line-height: 1.5; max-width: 221px; text-align: center;"><span class="nodeLabel markdown-node-label" style="fill:#EAF7EF;stroke:#58A978;color:#102033;stroke-width:1.5px"><p>R2dbcRedissonRepository</p></span></div></foreignObject></g></g><g class="members-group text" transform="translate(-95.515625, 30)"/><g class="methods-group text" transform="translate(-95.515625, 60)"/><g class="divider" style="fill:#EAF7EF;stroke:#58A978;color:#102033;stroke-width:1.5px"><path d="M-107.515625 6 C-64.38010018705637 6.0002006011908176, -21.244575374112742 6.000401202381635, 107.515625 6.001 M-107.515625 6 C-37.59823529216378 6.000325149901272, 32.31915441567244 6.000650299802544, 107.515625 6.001" stroke="#58A978" stroke-width="1.5" fill="none" stroke-dasharray="0 0" style="fill:#EAF7EF;stroke:#58A978;color:#102033;stroke-width:1.5px"/></g><g class="divider" style="fill:#EAF7EF;stroke:#58A978;color:#102033;stroke-width:1.5px"><path d="M-107.515625 24 C-39.634175650169624 24.000315681787413, 28.247273699660752 24.00063136357483, 107.515625 24.001 M-107.515625 24 C-33.34718052925656 24.000344919375536, 40.821263941486876 24.00068983875107, 107.515625 24.001" stroke="#58A978" stroke-width="1.5" fill="none" stroke-dasharray="0 0" style="fill:#EAF7EF;stroke:#58A978;color:#102033;stroke-width:1.5px"/></g></g></g></g></g><defs><filter id="my-svg-drop-shadow" height="130%" width="130%"><feDropShadow dx="4" dy="4" stdDeviation="0" flood-opacity="0.06" flood-color="#000000"/></filter></defs><defs><filter id="my-svg-drop-shadow-small" height="150%" width="150%"><feDropShadow dx="2" dy="2" stdDeviation="0" flood-opacity="0.06" flood-color="#000000"/></filter></defs><linearGradient id="my-svg-gradient" gradientUnits="objectBoundingBox" x1="0%" y1="0%" x2="100%" y2="0%"><stop offset="0%" stop-color="#5B8DEF" stop-opacity="1"/><stop offset="100%" stop-color="#58A978" stop-opacity="1"/></linearGradient></svg>