<svg xmlns="http://www.w3.org/2000/svg" width="1400" height="720" viewBox="0 0 1400 720" role="img" aria-label="R2DBC Test Infrastructure"><defs><filter id="shadow" x="-8%" y="-8%" width="116%" height="116%"><feDropShadow dx="0" dy="6" stdDeviation="7" flood-color="#203040" flood-opacity="0.10"/></filter><marker id="arrow" markerWidth="9" markerHeight="8" refX="8" refY="4" orient="auto" markerUnits="strokeWidth"><path d="M 1 1 L 8 4 L 1 7" fill="none" stroke="#758297" stroke-width="1.7" stroke-linecap="round" stroke-linejoin="round"/></marker><style>
.canvas{fill:#F6F9FC}.frame{fill:#fff;stroke:#D7E2EC;stroke-width:2}.title{font-family:"Architects Daughter","Comic Sans MS","Comic Sans",cursive;font-size:42px;fill:#22344A;font-weight:400}.subtitle{font-family:"Comic Sans MS","Comic Sans","Comic Neue",Arial,sans-serif;font-size:16px;fill:#536476;font-weight:400}.label{font-family:"Architects Daughter","Comic Sans MS","Comic Sans",cursive;font-size:24px;fill:#22344A;font-weight:400}.small{font-family:"Comic Sans MS","Comic Sans","Comic Neue",Arial,sans-serif;font-size:14px;fill:#536476;font-weight:400}.tiny{font-family:"Comic Sans MS","Comic Sans","Comic Neue",Arial,sans-serif;font-size:12px;fill:#536476;font-weight:400}.mono{font-family:"Comic Sans MS","Comic Sans","Comic Neue",Arial,sans-serif;font-size:13px;fill:#22344A;font-weight:400}.card{filter:url(#shadow);stroke-width:2}.line{stroke:#758297;stroke-width:2.2;fill:none;marker-end:url(#arrow)}.soft{stroke:#AAB6C5;stroke-width:1.8;fill:none;marker-end:url(#arrow)}.axis{stroke:#B8C4D3;stroke-width:1.3}.barText{font-family:"Comic Sans MS","Comic Sans","Comic Neue",Arial,sans-serif;font-size:13px;fill:#22344A;font-weight:400}</style></defs><rect class="canvas" width="1400" height="720"/><rect class="frame" x="34" y="28" width="1332" height="664" rx="24"/><text class="title" x="72" y="82">R2DBC Test Infrastructure</text><text class="subtitle" x="76" y="114">Coroutine-native test helpers and driver coverage.</text><rect class="card" x="560" y="155" width="300" height="78" rx="14" fill="#E8F3FF" stroke="#75A9E8"/><text class="label" x="710" y="194" text-anchor="middle" dominant-baseline="middle">AbstractExposedR2dbcTest</text><rect class="card" x="150" y="300" width="270" height="76" rx="14" fill="#EAF7EF" stroke="#69B888"/><text class="label" x="285" y="338" text-anchor="middle" dominant-baseline="middle">R2DBC TestDB</text><rect class="card" x="560" y="300" width="300" height="76" rx="14" fill="#FFF3D9" stroke="#D9AA4D"/><text class="label" x="710" y="338" text-anchor="middle" dominant-baseline="middle">suspend withDb</text><rect class="card" x="980" y="300" width="270" height="76" rx="14" fill="#FDECEF" stroke="#DB7890"/><text class="label" x="1115" y="338" text-anchor="middle" dominant-baseline="middle">suspend withTables</text><rect class="card" x="150" y="500" width="270" height="76" rx="14" fill="#E9F7F6" stroke="#55B5AF"/><text class="label" x="285" y="538" text-anchor="middle" dominant-baseline="middle">R2DBC drivers</text><rect class="card" x="560" y="500" width="300" height="76" rx="14" fill="#F1ECFF" stroke="#9478D6"/><text class="label" x="710" y="538" text-anchor="middle" dominant-baseline="middle">suspendTransaction</text><rect class="card" x="980" y="500" width="270" height="76" rx="14" fill="#F7F1E7" stroke="#B98C50"/><text class="label" x="1115" y="538" text-anchor="middle" dominant-baseline="middle">Shared fixtures</text><path class="line" d="M710 233 C497.5 233 497.5 300 285 300"/><path class="line" d="M710 233 C710 233 710 300 710 300"/><path class="line" d="M710 233 C912.5 233 912.5 300 1115 300"/><path class="line" d="M285 376 C285 376 285 500 285 500"/><path class="line" d="M710 376 C710 376 710 500 710 500"/><path class="line" d="M1115 376 C1115 376 1115 500 1115 500"/><path class="line" d="M420 538 C490 538 490 538 560 538"/><path class="line" d="M860 538 C920 538 920 538 980 538"/><text class="small" x="170" y="404">H2, H2 modes, MariaDB, MySQL 8.0, PostgreSQL</text><text class="small" x="170" y="626">r2dbc-h2, r2dbc-mariadb, r2dbc-mysql, r2dbc-postgresql</text><text class="small" x="580" y="404">Connection scoped coroutine helper</text><text class="small" x="1000" y="404">Create/drop tables in suspend lifecycle</text></svg>