<svg id="my-svg" width="100%" xmlns="http://www.w3.org/2000/svg" xmlns:xlink="http://www.w3.org/1999/xlink" class="classDiagram" style="max-width: 2202.22px; background-color: transparent;" viewBox="0 0 2202.21875 258" role="graphics-document document" aria-roledescription="class"><style>#my-svg{font-size:16px;fill:#102033;}@keyframes edge-animation-frame{from{stroke-dashoffset:0;}}@keyframes dash{to{stroke-dashoffset:0;}}#my-svg .edge-animation-slow{stroke-dasharray:9,5!important;stroke-dashoffset:900;animation:dash 50s linear infinite;stroke-linecap:round;}#my-svg .edge-animation-fast{stroke-dasharray:9,5!important;stroke-dashoffset:900;animation:dash 20s linear infinite;stroke-linecap:round;}#my-svg .error-icon{fill:#FFF3D9;}#my-svg .error-text{fill:#102033;stroke:#102033;}#my-svg .edge-thickness-normal{stroke-width:1px;}#my-svg .edge-thickness-thick{stroke-width:3.5px;}#my-svg .edge-pattern-solid{stroke-dasharray:0;}#my-svg .edge-thickness-invisible{stroke-width:0;fill:none;}#my-svg .edge-pattern-dashed{stroke-dasharray:3;}#my-svg .edge-pattern-dotted{stroke-dasharray:2;}#my-svg .marker{fill:#7A8794;stroke:#7A8794;}#my-svg .marker.cross{stroke:#7A8794;}#my-svg svg{font-size:16px;}#my-svg p{margin:0;}#my-svg g.classGroup text{fill:#5B8DEF;stroke:none;font-size:10px;}#my-svg g.classGroup text .title{font-weight:bolder;}#my-svg .cluster-label text{fill:#102033;}#my-svg .cluster-label span{color:#102033;}#my-svg .cluster-label span p{background-color:transparent;}#my-svg .cluster rect{fill:#F8FAFC;stroke:#CBD5E1;stroke-width:1px;}#my-svg .cluster text{fill:#102033;}#my-svg .cluster span{color:#102033;}#my-svg .nodeLabel,#my-svg .edgeLabel{color:#102033;}#my-svg .noteLabel .nodeLabel,#my-svg .noteLabel .edgeLabel{color:#333;}#my-svg .edgeLabel .label rect{fill:#E8F3FF;}#my-svg .label text{fill:#102033;}#my-svg .labelBkg{background:#E8F3FF;}#my-svg .edgeLabel .label span{background:#E8F3FF;}#my-svg .classTitle{font-weight:bolder;}#my-svg .node rect,#my-svg .node circle,#my-svg .node ellipse,#my-svg .node polygon,#my-svg .node path{fill:#E8F3FF;stroke:#5B8DEF;stroke-width:1;}#my-svg .divider{stroke:#5B8DEF;stroke-width:1;}#my-svg g.clickable{cursor:pointer;}#my-svg g.classGroup rect{fill:#E8F3FF;stroke:#5B8DEF;}#my-svg g.classGroup line{stroke:#5B8DEF;stroke-width:1;}#my-svg .classLabel .box{stroke:none;stroke-width:0;fill:#E8F3FF;opacity:0.5;}#my-svg .classLabel .label{fill:#5B8DEF;font-size:10px;}#my-svg .relation{stroke:#7A8794;stroke-width:1;fill:none;}#my-svg .dashed-line{stroke-dasharray:3;}#my-svg .dotted-line{stroke-dasharray:1 2;}#my-svg [id$="-compositionStart"],#my-svg .composition{fill:#7A8794!important;stroke:#7A8794!important;stroke-width:1;}#my-svg [id$="-compositionEnd"],#my-svg .composition{fill:#7A8794!important;stroke:#7A8794!important;stroke-width:1;}#my-svg [id$="-dependencyStart"],#my-svg .dependency{fill:#7A8794!important;stroke:#7A8794!important;stroke-width:1;}#my-svg [id$="-dependencyEnd"],#my-svg .dependency{fill:#7A8794!important;stroke:#7A8794!important;stroke-width:1;}#my-svg [id$="-extensionStart"],#my-svg .extension{fill:transparent!important;stroke:#7A8794!important;stroke-width:1;}#my-svg [id$="-extensionEnd"],#my-svg .extension{fill:transparent!important;stroke:#7A8794!important;stroke-width:1;}#my-svg [id$="-aggregationStart"],#my-svg .aggregation{fill:transparent!important;stroke:#7A8794!important;stroke-width:1;}#my-svg [id$="-aggregationEnd"],#my-svg .aggregation{fill:transparent!important;stroke:#7A8794!important;stroke-width:1;}#my-svg [id$="-lollipopStart"],#my-svg .lollipop{fill:#E8F3FF!important;stroke:#7A8794!important;stroke-width:1;}#my-svg [id$="-lollipopEnd"],#my-svg .lollipop{fill:#E8F3FF!important;stroke:#7A8794!important;stroke-width:1;}#my-svg .edgeTerminals{font-size:11px;line-height:initial;}#my-svg .classTitleText{text-anchor:middle;font-size:18px;fill:#102033;}#my-svg .edgeLabel[data-look="neo"]{background-color:#FFFFFF;text-align:center;}#my-svg .edgeLabel[data-look="neo"] p{background-color:#FFFFFF;}#my-svg .edgeLabel[data-look="neo"] rect{opacity:0.5;background-color:#FFFFFF;fill:#FFFFFF;}#my-svg .label-icon{display:inline-block;height:1em;overflow:visible;vertical-align:-0.125em;}#my-svg .node .label-icon path{fill:currentColor;stroke:revert;stroke-width:revert;}#my-svg .node .neo-node{stroke:#5B8DEF;}#my-svg [data-look="neo"].node rect,#my-svg [data-look="neo"].cluster rect,#my-svg [data-look="neo"].node polygon{stroke:url(#my-svg-gradient);filter:drop-shadow( 1px 2px 2px rgba(185,185,185,1));}#my-svg [data-look="neo"].node path{stroke:url(#my-svg-gradient);stroke-width:1px;}#my-svg [data-look="neo"].node .outer-path{filter:drop-shadow( 1px 2px 2px rgba(185,185,185,1));}#my-svg [data-look="neo"].node .neo-line path{stroke:#5B8DEF;filter:none;}#my-svg [data-look="neo"].node circle{stroke:url(#my-svg-gradient);filter:drop-shadow( 1px 2px 2px rgba(185,185,185,1));}#my-svg [data-look="neo"].node circle .state-start{fill:#000000;}#my-svg [data-look="neo"].icon-shape .icon{fill:url(#my-svg-gradient);filter:drop-shadow( 1px 2px 2px rgba(185,185,185,1));}#my-svg [data-look="neo"].icon-shape .icon-neo path{stroke:url(#my-svg-gradient);filter:drop-shadow( 1px 2px 2px rgba(185,185,185,1));}#my-svg :root{--mermaid-font-family:"trebuchet ms",verdana,arial,sans-serif;}#my-svg .GeometryColumnType&gt;*{fill:rgb(232, 243, 255)!important;stroke:rgb(91, 141, 239)!important;color:rgb(16, 32, 51)!important;stroke-width:1.5px!important;}#my-svg .GeometryColumnType span{fill:rgb(232, 243, 255)!important;stroke:rgb(91, 141, 239)!important;color:rgb(16, 32, 51)!important;stroke-width:1.5px!important;}#my-svg .GeoPointColumnType&gt;*{fill:rgb(255, 240, 230)!important;stroke:rgb(224, 138, 74)!important;color:rgb(16, 32, 51)!important;stroke-width:1.5px!important;}#my-svg .GeoPointColumnType span{fill:rgb(255, 240, 230)!important;stroke:rgb(224, 138, 74)!important;color:rgb(16, 32, 51)!important;stroke-width:1.5px!important;}#my-svg .GeoLineStringColumnType&gt;*{fill:rgb(233, 251, 248)!important;stroke:rgb(78, 167, 160)!important;color:rgb(16, 32, 51)!important;stroke-width:1.5px!important;}#my-svg .GeoLineStringColumnType span{fill:rgb(233, 251, 248)!important;stroke:rgb(78, 167, 160)!important;color:rgb(16, 32, 51)!important;stroke-width:1.5px!important;}#my-svg .GeoPolygonColumnType&gt;*{fill:rgb(234, 247, 239)!important;stroke:rgb(88, 169, 120)!important;color:rgb(16, 32, 51)!important;stroke-width:1.5px!important;}#my-svg .GeoPolygonColumnType span{fill:rgb(234, 247, 239)!important;stroke:rgb(88, 169, 120)!important;color:rgb(16, 32, 51)!important;stroke-width:1.5px!important;}#my-svg .GeoMultiPointColumnType&gt;*{fill:rgb(238, 242, 247)!important;stroke:rgb(138, 151, 168)!important;color:rgb(16, 32, 51)!important;stroke-width:1.5px!important;}#my-svg .GeoMultiPointColumnType span{fill:rgb(238, 242, 247)!important;stroke:rgb(138, 151, 168)!important;color:rgb(16, 32, 51)!important;stroke-width:1.5px!important;}#my-svg .GeoMultiLineStringColumnType&gt;*{fill:rgb(253, 236, 239)!important;stroke:rgb(217, 112, 131)!important;color:rgb(16, 32, 51)!important;stroke-width:1.5px!important;}#my-svg .GeoMultiLineStringColumnType span{fill:rgb(253, 236, 239)!important;stroke:rgb(217, 112, 131)!important;color:rgb(16, 32, 51)!important;stroke-width:1.5px!important;}#my-svg .GeoMultiPolygonColumnType&gt;*{fill:rgb(232, 243, 255)!important;stroke:rgb(91, 141, 239)!important;color:rgb(16, 32, 51)!important;stroke-width:1.5px!important;}#my-svg .GeoMultiPolygonColumnType span{fill:rgb(232, 243, 255)!important;stroke:rgb(91, 141, 239)!important;color:rgb(16, 32, 51)!important;stroke-width:1.5px!important;}#my-svg .GeoGeometryCollectionColumnType&gt;*{fill:rgb(232, 243, 255)!important;stroke:rgb(91, 141, 239)!important;color:rgb(16, 32, 51)!important;stroke-width:1.5px!important;}#my-svg .GeoGeometryCollectionColumnType span{fill:rgb(232, 243, 255)!important;stroke:rgb(91, 141, 239)!important;color:rgb(16, 32, 51)!important;stroke-width:1.5px!important;}#my-svg .GeoGeometryColumnType&gt;*{fill:rgb(255, 243, 217)!important;stroke:rgb(214, 164, 65)!important;color:rgb(16, 32, 51)!important;stroke-width:1.5px!important;}#my-svg .GeoGeometryColumnType span{fill:rgb(255, 243, 217)!important;stroke:rgb(214, 164, 65)!important;color:rgb(16, 32, 51)!important;stroke-width:1.5px!important;}</style><g><defs><marker id="my-svg_class-aggregationStart" class="marker aggregation class" refX="18" refY="7" markerWidth="190" markerHeight="240" orient="auto"><path d="M 18,7 L9,13 L1,7 L9,1 Z"/></marker></defs><defs><marker id="my-svg_class-aggregationEnd" class="marker aggregation class" refX="1" refY="7" markerWidth="20" markerHeight="28" orient="auto"><path d="M 18,7 L9,13 L1,7 L9,1 Z"/></marker></defs><defs><marker id="my-svg_class-aggregationStart-margin" class="marker aggregation class" refX="15" refY="7" markerWidth="190" markerHeight="240" orient="auto" markerUnits="userSpaceOnUse"><path d="M 18,7 L9,13 L1,7 L9,1 Z" style="stroke-width: 2;"/></marker></defs><defs><marker id="my-svg_class-aggregationEnd-margin" class="marker aggregation class" refX="1" refY="7" markerWidth="20" markerHeight="28" orient="auto" markerUnits="userSpaceOnUse"><path d="M 18,7 L9,13 L1,7 L9,1 Z" style="stroke-width: 2;"/></marker></defs><defs><marker id="my-svg_class-extensionStart" class="marker extension class" refX="18" refY="7" markerWidth="20" markerHeight="28" orient="auto" markerUnits="userSpaceOnUse"><path d="M 1,7 L18,13 V 1 Z"/></marker></defs><defs><marker id="my-svg_class-extensionEnd" class="marker extension class" refX="1" refY="7" markerWidth="20" markerHeight="28" orient="auto"><path d="M 1,1 V 13 L18,7 Z"/></marker></defs><marker id="my-svg_class-extensionStart-margin" class="marker extension class" refX="18" refY="7" markerWidth="20" markerHeight="28" orient="auto" markerUnits="userSpaceOnUse" viewBox="0 0 20 14"><polygon points="10,7 18,13 18,1" style="stroke-width: 2; stroke-dasharray: 0;"/></marker><defs><marker id="my-svg_class-extensionEnd-margin" class="marker extension class" refX="9" refY="7" markerWidth="20" markerHeight="28" orient="auto" markerUnits="userSpaceOnUse" viewBox="0 0 20 14"><polygon points="10,1 10,13 18,7" style="stroke-width: 2; stroke-dasharray: 0;"/></marker></defs><defs><marker id="my-svg_class-compositionStart" class="marker composition class" refX="18" refY="7" markerWidth="190" markerHeight="240" orient="auto"><path d="M 18,7 L9,13 L1,7 L9,1 Z"/></marker></defs><defs><marker id="my-svg_class-compositionEnd" class="marker composition class" refX="1" refY="7" markerWidth="20" markerHeight="28" orient="auto"><path d="M 18,7 L9,13 L1,7 L9,1 Z"/></marker></defs><defs><marker id="my-svg_class-compositionStart-margin" class="marker composition class" refX="15" refY="7" markerWidth="190" markerHeight="240" orient="auto" markerUnits="userSpaceOnUse"><path viewBox="0 0 15 15" d="M 18,7 L9,13 L1,7 L9,1 Z" style="stroke-width: 0;"/></marker></defs><defs><marker id="my-svg_class-compositionEnd-margin" class="marker composition class" refX="3.5" refY="7" markerWidth="20" markerHeight="28" orient="auto" markerUnits="userSpaceOnUse"><path d="M 18,7 L9,13 L1,7 L9,1 Z" style="stroke-width: 0;"/></marker></defs><defs><marker id="my-svg_class-dependencyStart" class="marker dependency class" refX="6" refY="7" markerWidth="190" markerHeight="240" orient="auto"><path d="M 5,7 L9,13 L1,7 L9,1 Z"/></marker></defs><defs><marker id="my-svg_class-dependencyEnd" class="marker dependency class" refX="13" refY="7" markerWidth="20" markerHeight="28" orient="auto"><path d="M 18,7 L9,13 L14,7 L9,1 Z"/></marker></defs><defs><marker id="my-svg_class-dependencyStart-margin" class="marker dependency class" refX="4" refY="7" markerWidth="190" markerHeight="240" orient="auto" markerUnits="userSpaceOnUse"><path d="M 5,7 L9,13 L1,7 L9,1 Z" style="stroke-width: 0;"/></marker></defs><defs><marker id="my-svg_class-dependencyEnd-margin" class="marker dependency class" refX="16" refY="7" markerWidth="20" markerHeight="28" orient="auto" markerUnits="userSpaceOnUse"><path d="M 18,7 L9,13 L14,7 L9,1 Z" style="stroke-width: 0;"/></marker></defs><defs><marker id="my-svg_class-lollipopStart" class="marker lollipop class" refX="13" refY="7" markerWidth="190" markerHeight="240" orient="auto"><circle fill="transparent" cx="7" cy="7" r="6"/></marker></defs><defs><marker id="my-svg_class-lollipopEnd" class="marker lollipop class" refX="1" refY="7" markerWidth="190" markerHeight="240" orient="auto"><circle fill="transparent" cx="7" cy="7" r="6"/></marker></defs><defs><marker id="my-svg_class-lollipopStart-margin" class="marker lollipop class" refX="13" refY="7" markerWidth="190" markerHeight="240" orient="auto" markerUnits="userSpaceOnUse"><circle fill="transparent" cx="7" cy="7" r="6" stroke-width="2"/></marker></defs><defs><marker id="my-svg_class-lollipopEnd-margin" class="marker lollipop class" refX="1" refY="7" markerWidth="190" markerHeight="240" orient="auto" markerUnits="userSpaceOnUse"><circle fill="transparent" cx="7" cy="7" r="6" stroke-width="2"/></marker></defs><g class="root"><g class="clusters"/><g class="edgePaths"><path d="M906.927,71.62L772.365,83.183C637.803,94.747,368.679,117.873,234.117,133.603C99.555,149.333,99.555,157.667,99.555,161.833L99.555,166" id="my-svg-id_GeometryColumnType_GeoPointColumnType_1" class="edge-thickness-normal edge-pattern-solid relation" style=";;;" data-edge="true" data-et="edge" data-id="id_GeometryColumnType_GeoPointColumnType_1" data-points="W3sieCI6OTI0LjExMzI4MTI1LCJ5Ijo3MC4xNDI4NjI2MDU5NjE0NX0seyJ4Ijo5OS41NTQ2ODc1LCJ5IjoxNDF9LHsieCI6OTkuNTU0Njg3NSwieSI6MTY2fV0=" data-look="classic" marker-start="url(#my-svg_class-extensionStart)"/><path d="M906.983,75.244L814.397,86.203C721.811,97.163,536.64,119.081,444.054,134.207C351.469,149.333,351.469,157.667,351.469,161.833L351.469,166" id="my-svg-id_GeometryColumnType_GeoLineStringColumnType_2" class="edge-thickness-normal edge-pattern-solid relation" style=";;;" data-edge="true" data-et="edge" data-id="id_GeometryColumnType_GeoLineStringColumnType_2" data-points="W3sieCI6OTI0LjExMzI4MTI1LCJ5Ijo3My4yMTY0MjMyODI5MDA3fSx7IngiOjM1MS40Njg3NSwieSI6MTQxfSx7IngiOjM1MS40Njg3NSwieSI6MTY2fV0=" data-look="classic" marker-start="url(#my-svg_class-extensionStart)"/><path d="M907.181,83.739L858.15,93.283C809.118,102.826,711.055,121.913,662.024,135.623C612.992,149.333,612.992,157.667,612.992,161.833L612.992,166" id="my-svg-id_GeometryColumnType_GeoPolygonColumnType_3" class="edge-thickness-normal edge-pattern-solid relation" style=";;;" data-edge="true" data-et="edge" data-id="id_GeometryColumnType_GeoPolygonColumnType_3" data-points="W3sieCI6OTI0LjExMzI4MTI1LCJ5Ijo4MC40NDM1OTc1MTY5NjI2MX0seyJ4Ijo2MTIuOTkyMTg3NSwieSI6MTQxfSx7IngiOjYxMi45OTIxODc1LCJ5IjoxNjZ9XQ==" data-look="classic" marker-start="url(#my-svg_class-extensionStart)"/><path d="M908.976,122.057L903.199,125.214C897.422,128.371,885.867,134.686,880.09,142.009C874.313,149.333,874.313,157.667,874.313,161.833L874.313,166" id="my-svg-id_GeometryColumnType_GeoMultiPointColumnType_4" class="edge-thickness-normal edge-pattern-solid relation" style=";;;" data-edge="true" data-et="edge" data-id="id_GeometryColumnType_GeoMultiPointColumnType_4" data-points="W3sieCI6OTI0LjExMzI4MTI1LCJ5IjoxMTMuNzg0MzExMDc2MjgyODh9LHsieCI6ODc0LjMxMjUsInkiOjE0MX0seyJ4Ijo4NzQuMzEyNSwieSI6MTY2fV0=" data-look="classic" marker-start="url(#my-svg_class-extensionStart)"/><path d="M1128.766,122.057L1134.543,125.214C1140.321,128.371,1151.875,134.686,1157.652,142.009C1163.43,149.333,1163.43,157.667,1163.43,161.833L1163.43,166" id="my-svg-id_GeometryColumnType_GeoMultiLineStringColumnType_5" class="edge-thickness-normal edge-pattern-solid relation" style=";;;" data-edge="true" data-et="edge" data-id="id_GeometryColumnType_GeoMultiLineStringColumnType_5" data-points="W3sieCI6MTExMy42Mjg5MDYyNSwieSI6MTEzLjc4NDMxMTA3NjI4Mjg4fSx7IngiOjExNjMuNDI5Njg3NSwieSI6MTQxfSx7IngiOjExNjMuNDI5Njg3NSwieSI6MTY2fV0=" data-look="classic" marker-start="url(#my-svg_class-extensionStart)"/><path d="M1130.611,81.913L1185.87,91.761C1241.129,101.609,1351.646,121.304,1406.905,135.319C1462.164,149.333,1462.164,157.667,1462.164,161.833L1462.164,166" id="my-svg-id_GeometryColumnType_GeoMultiPolygonColumnType_6" class="edge-thickness-normal edge-pattern-solid relation" style=";;;" data-edge="true" data-et="edge" data-id="id_GeometryColumnType_GeoMultiPolygonColumnType_6" data-points="W3sieCI6MTExMy42Mjg5MDYyNSwieSI6NzguODg2OTUyMjMwNzMwNn0seyJ4IjoxNDYyLjE2NDA2MjUsInkiOjE0MX0seyJ4IjoxNDYyLjE2NDA2MjUsInkiOjE2Nn1d" data-look="classic" marker-start="url(#my-svg_class-extensionStart)"/><path d="M1130.786,73.634L1238.793,84.862C1346.8,96.089,1562.814,118.545,1670.821,133.939C1778.828,149.333,1778.828,157.667,1778.828,161.833L1778.828,166" id="my-svg-id_GeometryColumnType_GeoGeometryCollectionColumnType_7" class="edge-thickness-normal edge-pattern-solid relation" style=";;;" data-edge="true" data-et="edge" data-id="id_GeometryColumnType_GeoGeometryCollectionColumnType_7" data-points="W3sieCI6MTExMy42Mjg5MDYyNSwieSI6NzEuODUwMzgyMTY1OTMyNDl9LHsieCI6MTc3OC44MjgxMjUsInkiOjE0MX0seyJ4IjoxNzc4LjgyODEyNSwieSI6MTY2fV0=" data-look="classic" marker-start="url(#my-svg_class-extensionStart)"/><path d="M1130.832,70.297L1289.855,82.08C1448.877,93.864,1766.923,117.432,1925.946,133.383C2084.969,149.333,2084.969,157.667,2084.969,161.833L2084.969,166" id="my-svg-id_GeometryColumnType_GeoGeometryColumnType_8" class="edge-thickness-normal edge-pattern-solid relation" style=";;;" data-edge="true" data-et="edge" data-id="id_GeometryColumnType_GeoGeometryColumnType_8" data-points="W3sieCI6MTExMy42Mjg5MDYyNSwieSI6NjkuMDIxNzQ2MjE5NjAyMDF9LHsieCI6MjA4NC45Njg3NSwieSI6MTQxfSx7IngiOjIwODQuOTY4NzUsInkiOjE2Nn1d" data-look="classic" marker-start="url(#my-svg_class-extensionStart)"/></g><g class="edgeLabels"><g class="edgeLabel"><g class="label" data-id="id_GeometryColumnType_GeoPointColumnType_1" transform="translate(0, 0)"><foreignObject width="0" height="0"><div xmlns="http://www.w3.org/1999/xhtml" class="labelBkg" style="display: table-cell; white-space: nowrap; line-height: 1.5; max-width: 200px; text-align: center;"><span class="edgeLabel"></span></div></foreignObject></g></g><g class="edgeLabel"><g class="label" data-id="id_GeometryColumnType_GeoLineStringColumnType_2" transform="translate(0, 0)"><foreignObject width="0" height="0"><div xmlns="http://www.w3.org/1999/xhtml" class="labelBkg" style="display: table-cell; white-space: nowrap; line-height: 1.5; max-width: 200px; text-align: center;"><span class="edgeLabel"></span></div></foreignObject></g></g><g class="edgeLabel"><g class="label" data-id="id_GeometryColumnType_GeoPolygonColumnType_3" transform="translate(0, 0)"><foreignObject width="0" height="0"><div xmlns="http://www.w3.org/1999/xhtml" class="labelBkg" style="display: table-cell; white-space: nowrap; line-height: 1.5; max-width: 200px; text-align: center;"><span class="edgeLabel"></span></div></foreignObject></g></g><g class="edgeLabel"><g class="label" data-id="id_GeometryColumnType_GeoMultiPointColumnType_4" transform="translate(0, 0)"><foreignObject width="0" height="0"><div xmlns="http://www.w3.org/1999/xhtml" class="labelBkg" style="display: table-cell; white-space: nowrap; line-height: 1.5; max-width: 200px; text-align: center;"><span class="edgeLabel"></span></div></foreignObject></g></g><g class="edgeLabel"><g class="label" data-id="id_GeometryColumnType_GeoMultiLineStringColumnType_5" transform="translate(0, 0)"><foreignObject width="0" height="0"><div xmlns="http://www.w3.org/1999/xhtml" class="labelBkg" style="display: table-cell; white-space: nowrap; line-height: 1.5; max-width: 200px; text-align: center;"><span class="edgeLabel"></span></div></foreignObject></g></g><g class="edgeLabel"><g class="label" data-id="id_GeometryColumnType_GeoMultiPolygonColumnType_6" transform="translate(0, 0)"><foreignObject width="0" height="0"><div xmlns="http://www.w3.org/1999/xhtml" class="labelBkg" style="display: table-cell; white-space: nowrap; line-height: 1.5; max-width: 200px; text-align: center;"><span class="edgeLabel"></span></div></foreignObject></g></g><g class="edgeLabel"><g class="label" data-id="id_GeometryColumnType_GeoGeometryCollectionColumnType_7" transform="translate(0, 0)"><foreignObject width="0" height="0"><div xmlns="http://www.w3.org/1999/xhtml" class="labelBkg" style="display: table-cell; white-space: nowrap; line-height: 1.5; max-width: 200px; text-align: center;"><span class="edgeLabel"></span></div></foreignObject></g></g><g class="edgeLabel"><g class="label" data-id="id_GeometryColumnType_GeoGeometryColumnType_8" transform="translate(0, 0)"><foreignObject width="0" height="0"><div xmlns="http://www.w3.org/1999/xhtml" class="labelBkg" style="display: table-cell; white-space: nowrap; line-height: 1.5; max-width: 200px; text-align: center;"><span class="edgeLabel"></span></div></foreignObject></g></g></g><g class="nodes"><g class="node default" id="my-svg-classId-GeometryColumnType-0" data-look="classic" transform="translate(1018.87109375, 62)"><g class="basic label-container outer-path"><path d="M-94.7578125 -54 L94.7578125 -54 L94.7578125 54 L-94.7578125 54" stroke="none" stroke-width="0" fill="#E8F3FF" style="fill:#E8F3FF;stroke:#5B8DEF;color:#102033;stroke-width:1.5px"/><path d="M-94.7578125 -54 C-39.29827895978855 -54, 16.161254580422906 -54, 94.7578125 -54 M-94.7578125 -54 C-41.82318075519612 -54, 11.11145098960776 -54, 94.7578125 -54 M94.7578125 -54 C94.7578125 -28.416763018187954, 94.7578125 -2.8335260363759076, 94.7578125 54 M94.7578125 -54 C94.7578125 -17.445782284852932, 94.7578125 19.108435430294136, 94.7578125 54 M94.7578125 54 C29.840929928098802 54, -35.075952643802395 54, -94.7578125 54 M94.7578125 54 C36.834702639542165 54, -21.08840722091567 54, -94.7578125 54 M-94.7578125 54 C-94.7578125 24.922587990250758, -94.7578125 -4.154824019498484, -94.7578125 -54 M-94.7578125 54 C-94.7578125 15.625283219117783, -94.7578125 -22.749433561764434, -94.7578125 -54" stroke="#5B8DEF" stroke-width="1.5" fill="none" stroke-dasharray="0 0" style="fill:#E8F3FF;stroke:#5B8DEF;color:#102033;stroke-width:1.5px"/></g><g class="annotation-group text" transform="translate(-24.65625, -30)"><g class="label" style="" transform="translate(0,-12)"><foreignObject width="49.3125" height="24"><div xmlns="http://www.w3.org/1999/xhtml" style="display: table-cell; white-space: nowrap; line-height: 1.5; max-width: 94px; text-align: center;"><span class="nodeLabel markdown-node-label" style="fill:#E8F3FF;stroke:#5B8DEF;color:#102033;stroke-width:1.5px"><p>«base»</p></span></div></foreignObject></g></g><g class="label-group text" transform="translate(-82.7578125, -6)"><g class="label" style="font-weight: bolder" transform="translate(0,-12)"><foreignObject width="165.515625" height="24"><div xmlns="http://www.w3.org/1999/xhtml" style="display: table-cell; white-space: nowrap; line-height: 1.5; max-width: 197px; text-align: center;"><span class="nodeLabel markdown-node-label" style="fill:#E8F3FF;stroke:#5B8DEF;color:#102033;stroke-width:1.5px"><p>GeometryColumnType</p></span></div></foreignObject></g></g><g class="members-group text" transform="translate(-82.7578125, 42)"/><g class="methods-group text" transform="translate(-82.7578125, 72)"/><g class="divider" style="fill:#E8F3FF;stroke:#5B8DEF;color:#102033;stroke-width:1.5px"><path d="M-94.7578125 18 C-35.03787271602234 18.000315118818218, 24.682067067955316 18.00063023763644, 94.7578125 18.001 M-94.7578125 18 C-32.998142932399055 18.00032588167634, 28.76152663520189 18.000651763352682, 94.7578125 18.001" stroke="#5B8DEF" stroke-width="1.5" fill="none" stroke-dasharray="0 0" style="fill:#E8F3FF;stroke:#5B8DEF;color:#102033;stroke-width:1.5px"/></g><g class="divider" style="fill:#E8F3FF;stroke:#5B8DEF;color:#102033;stroke-width:1.5px"><path d="M-94.7578125 36 C-39.435233793345134 36.00029191565976, 15.887344913309732 36.00058383131952, 94.7578125 36.001 M-94.7578125 36 C-29.330827048806952 36.000345232671194, 36.096158402386095 36.00069046534238, 94.7578125 36.001" stroke="#5B8DEF" stroke-width="1.5" fill="none" stroke-dasharray="0 0" style="fill:#E8F3FF;stroke:#5B8DEF;color:#102033;stroke-width:1.5px"/></g></g><g class="node default" id="my-svg-classId-GeoPointColumnType-1" data-look="classic" transform="translate(99.5546875, 208)"><g class="basic label-container outer-path"><path d="M-91.5546875 -42 L91.5546875 -42 L91.5546875 42 L-91.5546875 42" stroke="none" stroke-width="0" fill="#FFF0E6" style="fill:#FFF0E6;stroke:#E08A4A;color:#102033;stroke-width:1.5px"/><path d="M-91.5546875 -42 C-34.24532969194572 -42, 23.06402811610856 -42, 91.5546875 -42 M-91.5546875 -42 C-27.145233712806586 -42, 37.26422007438683 -42, 91.5546875 -42 M91.5546875 -42 C91.5546875 -14.836607089722552, 91.5546875 12.326785820554896, 91.5546875 42 M91.5546875 -42 C91.5546875 -13.205113577827067, 91.5546875 15.589772844345866, 91.5546875 42 M91.5546875 42 C33.06774556312724 42, -25.41919637374552 42, -91.5546875 42 M91.5546875 42 C29.24155916047254 42, -33.07156917905492 42, -91.5546875 42 M-91.5546875 42 C-91.5546875 20.370350748505103, -91.5546875 -1.2592985029897932, -91.5546875 -42 M-91.5546875 42 C-91.5546875 24.263025147416357, -91.5546875 6.526050294832714, -91.5546875 -42" stroke="#E08A4A" stroke-width="1.5" fill="none" stroke-dasharray="0 0" style="fill:#FFF0E6;stroke:#E08A4A;color:#102033;stroke-width:1.5px"/></g><g class="annotation-group text" transform="translate(0, -18)"/><g class="label-group text" transform="translate(-79.5546875, -18)"><g class="label" style="font-weight: bolder" transform="translate(0,-12)"><foreignObject width="159.109375" height="24"><div xmlns="http://www.w3.org/1999/xhtml" style="display: table-cell; white-space: nowrap; line-height: 1.5; max-width: 194px; text-align: center;"><span class="nodeLabel markdown-node-label" style="fill:#FFF0E6;stroke:#E08A4A;color:#102033;stroke-width:1.5px"><p>GeoPointColumnType</p></span></div></foreignObject></g></g><g class="members-group text" transform="translate(-79.5546875, 30)"/><g class="methods-group text" transform="translate(-79.5546875, 60)"/><g class="divider" style="fill:#FFF0E6;stroke:#E08A4A;color:#102033;stroke-width:1.5px"><path d="M-91.5546875 6 C-53.65425158098742 6.000206982498406, -15.75381566197484 6.000413964996811, 91.5546875 6.001 M-91.5546875 6 C-34.90693363013734 6.000309365666667, 21.740820239725323 6.000618731333335, 91.5546875 6.001" stroke="#E08A4A" stroke-width="1.5" fill="none" stroke-dasharray="0 0" style="fill:#FFF0E6;stroke:#E08A4A;color:#102033;stroke-width:1.5px"/></g><g class="divider" style="fill:#FFF0E6;stroke:#E08A4A;color:#102033;stroke-width:1.5px"><path d="M-91.5546875 24 C-19.749020730444357 24.00039214631566, 52.056646039111286 24.000784292631327, 91.5546875 24.001 M-91.5546875 24 C-21.685511984496102 24.00038157071704, 48.183663531007795 24.00076314143408, 91.5546875 24.001" stroke="#E08A4A" stroke-width="1.5" fill="none" stroke-dasharray="0 0" style="fill:#FFF0E6;stroke:#E08A4A;color:#102033;stroke-width:1.5px"/></g></g><g class="node default" id="my-svg-classId-GeoLineStringColumnType-2" data-look="classic" transform="translate(351.46875, 208)"><g class="basic label-container outer-path"><path d="M-110.359375 -42 L110.359375 -42 L110.359375 42 L-110.359375 42" stroke="none" stroke-width="0" fill="#E9FBF8" style="fill:#E9FBF8;stroke:#4EA7A0;color:#102033;stroke-width:1.5px"/><path d="M-110.359375 -42 C-53.89222199838222 -42, 2.5749310032355623 -42, 110.359375 -42 M-110.359375 -42 C-31.321607393467175 -42, 47.71616021306565 -42, 110.359375 -42 M110.359375 -42 C110.359375 -13.162040398851289, 110.359375 15.675919202297422, 110.359375 42 M110.359375 -42 C110.359375 -18.367474081900887, 110.359375 5.265051836198225, 110.359375 42 M110.359375 42 C27.932088556497334 42, -54.49519788700533 42, -110.359375 42 M110.359375 42 C33.88446397408845 42, -42.590447051823105 42, -110.359375 42 M-110.359375 42 C-110.359375 14.496584723908335, -110.359375 -13.006830552183331, -110.359375 -42 M-110.359375 42 C-110.359375 18.83884045466253, -110.359375 -4.322319090674938, -110.359375 -42" stroke="#4EA7A0" stroke-width="1.5" fill="none" stroke-dasharray="0 0" style="fill:#E9FBF8;stroke:#4EA7A0;color:#102033;stroke-width:1.5px"/></g><g class="annotation-group text" transform="translate(0, -18)"/><g class="label-group text" transform="translate(-98.359375, -18)"><g class="label" style="font-weight: bolder" transform="translate(0,-12)"><foreignObject width="196.71875" height="24"><div xmlns="http://www.w3.org/1999/xhtml" style="display: table-cell; white-space: nowrap; line-height: 1.5; max-width: 228px; text-align: center;"><span class="nodeLabel markdown-node-label" style="fill:#E9FBF8;stroke:#4EA7A0;color:#102033;stroke-width:1.5px"><p>GeoLineStringColumnType</p></span></div></foreignObject></g></g><g class="members-group text" transform="translate(-98.359375, 30)"/><g class="methods-group text" transform="translate(-98.359375, 60)"/><g class="divider" style="fill:#E9FBF8;stroke:#4EA7A0;color:#102033;stroke-width:1.5px"><path d="M-110.359375 6 C-27.652141914305304 6.000374717748654, 55.05509117138939 6.000749435497308, 110.359375 6.001 M-110.359375 6 C-40.93052995578266 6.00031455798406, 28.49831508843468 6.0006291159681195, 110.359375 6.001" stroke="#4EA7A0" stroke-width="1.5" fill="none" stroke-dasharray="0 0" style="fill:#E9FBF8;stroke:#4EA7A0;color:#102033;stroke-width:1.5px"/></g><g class="divider" style="fill:#E9FBF8;stroke:#4EA7A0;color:#102033;stroke-width:1.5px"><path d="M-110.359375 24 C-28.011328859466772 24.000373090397353, 54.336717281066456 24.000746180794703, 110.359375 24.001 M-110.359375 24 C-62.30748405114259 24.000217706429332, -14.255593102285175 24.00043541285866, 110.359375 24.001" stroke="#4EA7A0" stroke-width="1.5" fill="none" stroke-dasharray="0 0" style="fill:#E9FBF8;stroke:#4EA7A0;color:#102033;stroke-width:1.5px"/></g></g><g class="node default" id="my-svg-classId-GeoPolygonColumnType-3" data-look="classic" transform="translate(612.9921875, 208)"><g class="basic label-container outer-path"><path d="M-101.1640625 -42 L101.1640625 -42 L101.1640625 42 L-101.1640625 42" stroke="none" stroke-width="0" fill="#EAF7EF" style="fill:#EAF7EF;stroke:#58A978;color:#102033;stroke-width:1.5px"/><path d="M-101.1640625 -42 C-44.225463880255134 -42, 12.713134739489732 -42, 101.1640625 -42 M-101.1640625 -42 C-57.96556606909976 -42, -14.767069638199516 -42, 101.1640625 -42 M101.1640625 -42 C101.1640625 -18.72933720470064, 101.1640625 4.541325590598717, 101.1640625 42 M101.1640625 -42 C101.1640625 -9.956309635232742, 101.1640625 22.087380729534516, 101.1640625 42 M101.1640625 42 C21.539265735113887 42, -58.08553102977223 42, -101.1640625 42 M101.1640625 42 C57.8017926523894 42, 14.439522804778804 42, -101.1640625 42 M-101.1640625 42 C-101.1640625 14.31194635038188, -101.1640625 -13.376107299236239, -101.1640625 -42 M-101.1640625 42 C-101.1640625 24.884793148982986, -101.1640625 7.769586297965972, -101.1640625 -42" stroke="#58A978" stroke-width="1.5" fill="none" stroke-dasharray="0 0" style="fill:#EAF7EF;stroke:#58A978;color:#102033;stroke-width:1.5px"/></g><g class="annotation-group text" transform="translate(0, -18)"/><g class="label-group text" transform="translate(-89.1640625, -18)"><g class="label" style="font-weight: bolder" transform="translate(0,-12)"><foreignObject width="178.328125" height="24"><div xmlns="http://www.w3.org/1999/xhtml" style="display: table-cell; white-space: nowrap; line-height: 1.5; max-width: 213px; text-align: center;"><span class="nodeLabel markdown-node-label" style="fill:#EAF7EF;stroke:#58A978;color:#102033;stroke-width:1.5px"><p>GeoPolygonColumnType</p></span></div></foreignObject></g></g><g class="members-group text" transform="translate(-89.1640625, 30)"/><g class="methods-group text" transform="translate(-89.1640625, 60)"/><g class="divider" style="fill:#EAF7EF;stroke:#58A978;color:#102033;stroke-width:1.5px"><path d="M-101.1640625 6 C-53.98514253826595 6.000233180236123, -6.806222576531894 6.000466360472245, 101.1640625 6.001 M-101.1640625 6 C-33.836624847286046 6.000332763611844, 33.49081280542791 6.000665527223689, 101.1640625 6.001" stroke="#58A978" stroke-width="1.5" fill="none" stroke-dasharray="0 0" style="fill:#EAF7EF;stroke:#58A978;color:#102033;stroke-width:1.5px"/></g><g class="divider" style="fill:#EAF7EF;stroke:#58A978;color:#102033;stroke-width:1.5px"><path d="M-101.1640625 24 C-24.07757075702314 24.00038099741073, 53.00892098595372 24.000761994821463, 101.1640625 24.001 M-101.1640625 24 C-52.750040949771076 24.000239284684472, -4.3360193995421525 24.000478569368944, 101.1640625 24.001" stroke="#58A978" stroke-width="1.5" fill="none" stroke-dasharray="0 0" style="fill:#EAF7EF;stroke:#58A978;color:#102033;stroke-width:1.5px"/></g></g><g class="node default" id="my-svg-classId-GeoMultiPointColumnType-4" data-look="classic" transform="translate(874.3125, 208)"><g class="basic label-container outer-path"><path d="M-110.15625 -42 L110.15625 -42 L110.15625 42 L-110.15625 42" stroke="none" stroke-width="0" fill="#EEF2F7" style="fill:#EEF2F7;stroke:#8A97A8;color:#102033;stroke-width:1.5px"/><path d="M-110.15625 -42 C-63.56974739828087 -42, -16.983244796561735 -42, 110.15625 -42 M-110.15625 -42 C-62.08158263443033 -42, -14.006915268860666 -42, 110.15625 -42 M110.15625 -42 C110.15625 -22.439601941530153, 110.15625 -2.879203883060306, 110.15625 42 M110.15625 -42 C110.15625 -22.203369872921435, 110.15625 -2.40673974584287, 110.15625 42 M110.15625 42 C41.41612825119543 42, -27.323993497609138 42, -110.15625 42 M110.15625 42 C56.21452032905287 42, 2.272790658105734 42, -110.15625 42 M-110.15625 42 C-110.15625 10.38198120987202, -110.15625 -21.23603758025596, -110.15625 -42 M-110.15625 42 C-110.15625 23.661741885323877, -110.15625 5.323483770647755, -110.15625 -42" stroke="#8A97A8" stroke-width="1.5" fill="none" stroke-dasharray="0 0" style="fill:#EEF2F7;stroke:#8A97A8;color:#102033;stroke-width:1.5px"/></g><g class="annotation-group text" transform="translate(0, -18)"/><g class="label-group text" transform="translate(-98.15625, -18)"><g class="label" style="font-weight: bolder" transform="translate(0,-12)"><foreignObject width="196.3125" height="24"><div xmlns="http://www.w3.org/1999/xhtml" style="display: table-cell; white-space: nowrap; line-height: 1.5; max-width: 229px; text-align: center;"><span class="nodeLabel markdown-node-label" style="fill:#EEF2F7;stroke:#8A97A8;color:#102033;stroke-width:1.5px"><p>GeoMultiPointColumnType</p></span></div></foreignObject></g></g><g class="members-group text" transform="translate(-98.15625, 30)"/><g class="methods-group text" transform="translate(-98.15625, 60)"/><g class="divider" style="fill:#EEF2F7;stroke:#8A97A8;color:#102033;stroke-width:1.5px"><path d="M-110.15625 6 C-61.17839786342461 6.0002223108182084, -12.200545726849214 6.000444621636417, 110.15625 6.001 M-110.15625 6 C-26.12838447402912 6.000381403077565, 57.89948105194176 6.000762806155129, 110.15625 6.001" stroke="#8A97A8" stroke-width="1.5" fill="none" stroke-dasharray="0 0" style="fill:#EEF2F7;stroke:#8A97A8;color:#102033;stroke-width:1.5px"/></g><g class="divider" style="fill:#EEF2F7;stroke:#8A97A8;color:#102033;stroke-width:1.5px"><path d="M-110.15625 24 C-39.021409470978725 24.000322881545664, 32.11343105804255 24.000645763091327, 110.15625 24.001 M-110.15625 24 C-41.28728598473272 24.0003125967161, 27.58167803053456 24.000625193432196, 110.15625 24.001" stroke="#8A97A8" stroke-width="1.5" fill="none" stroke-dasharray="0 0" style="fill:#EEF2F7;stroke:#8A97A8;color:#102033;stroke-width:1.5px"/></g></g><g class="node default" id="my-svg-classId-GeoMultiLineStringColumnType-5" data-look="classic" transform="translate(1163.4296875, 208)"><g class="basic label-container outer-path"><path d="M-128.9609375 -42 L128.9609375 -42 L128.9609375 42 L-128.9609375 42" stroke="none" stroke-width="0" fill="#FDECEF" style="fill:#FDECEF;stroke:#D97083;color:#102033;stroke-width:1.5px"/><path d="M-128.9609375 -42 C-40.640687997026475 -42, 47.67956150594705 -42, 128.9609375 -42 M-128.9609375 -42 C-75.22285952250141 -42, -21.484781545002832 -42, 128.9609375 -42 M128.9609375 -42 C128.9609375 -18.57443441425464, 128.9609375 4.851131171490721, 128.9609375 42 M128.9609375 -42 C128.9609375 -20.188414656513693, 128.9609375 1.623170686972614, 128.9609375 42 M128.9609375 42 C72.31283920583061 42, 15.664740911661227 42, -128.9609375 42 M128.9609375 42 C48.64155662920747 42, -31.677824241585057 42, -128.9609375 42 M-128.9609375 42 C-128.9609375 14.226715649459319, -128.9609375 -13.546568701081362, -128.9609375 -42 M-128.9609375 42 C-128.9609375 22.8330671276433, -128.9609375 3.6661342552866003, -128.9609375 -42" stroke="#D97083" stroke-width="1.5" fill="none" stroke-dasharray="0 0" style="fill:#FDECEF;stroke:#D97083;color:#102033;stroke-width:1.5px"/></g><g class="annotation-group text" transform="translate(0, -18)"/><g class="label-group text" transform="translate(-116.9609375, -18)"><g class="label" style="font-weight: bolder" transform="translate(0,-12)"><foreignObject width="233.921875" height="24"><div xmlns="http://www.w3.org/1999/xhtml" style="display: table-cell; white-space: nowrap; line-height: 1.5; max-width: 264px; text-align: center;"><span class="nodeLabel markdown-node-label" style="fill:#FDECEF;stroke:#D97083;color:#102033;stroke-width:1.5px"><p>GeoMultiLineStringColumnType</p></span></div></foreignObject></g></g><g class="members-group text" transform="translate(-116.9609375, 30)"/><g class="methods-group text" transform="translate(-116.9609375, 60)"/><g class="divider" style="fill:#FDECEF;stroke:#D97083;color:#102033;stroke-width:1.5px"><path d="M-128.9609375 6 C-69.83282707573302 6.000229248141222, -10.704716651466043 6.0004584962824445, 128.9609375 6.001 M-128.9609375 6 C-28.101666457283585 6.000391045819757, 72.75760458543283 6.000782091639515, 128.9609375 6.001" stroke="#D97083" stroke-width="1.5" fill="none" stroke-dasharray="0 0" style="fill:#FDECEF;stroke:#D97083;color:#102033;stroke-width:1.5px"/></g><g class="divider" style="fill:#FDECEF;stroke:#D97083;color:#102033;stroke-width:1.5px"><path d="M-128.9609375 24 C-42.519805945330404 24.000335144630732, 43.92132560933919 24.000670289261464, 128.9609375 24.001 M-128.9609375 24 C-56.58384390748904 24.00028061634397, 15.79324968502192 24.000561232687943, 128.9609375 24.001" stroke="#D97083" stroke-width="1.5" fill="none" stroke-dasharray="0 0" style="fill:#FDECEF;stroke:#D97083;color:#102033;stroke-width:1.5px"/></g></g><g class="node default" id="my-svg-classId-GeoMultiPolygonColumnType-6" data-look="classic" transform="translate(1462.1640625, 208)"><g class="basic label-container outer-path"><path d="M-119.7734375 -42 L119.7734375 -42 L119.7734375 42 L-119.7734375 42" stroke="none" stroke-width="0" fill="#E8F3FF" style="fill:#E8F3FF;stroke:#5B8DEF;color:#102033;stroke-width:1.5px"/><path d="M-119.7734375 -42 C-47.966985788063155 -42, 23.83946592387369 -42, 119.7734375 -42 M-119.7734375 -42 C-41.91550354415142 -42, 35.94243041169716 -42, 119.7734375 -42 M119.7734375 -42 C119.7734375 -23.09575940353764, 119.7734375 -4.191518807075283, 119.7734375 42 M119.7734375 -42 C119.7734375 -14.706481915593137, 119.7734375 12.587036168813725, 119.7734375 42 M119.7734375 42 C40.52102370826108 42, -38.731390083477834 42, -119.7734375 42 M119.7734375 42 C70.06594162892304 42, 20.358445757846084 42, -119.7734375 42 M-119.7734375 42 C-119.7734375 12.76203109748085, -119.7734375 -16.4759378050383, -119.7734375 -42 M-119.7734375 42 C-119.7734375 12.823137517873882, -119.7734375 -16.353724964252237, -119.7734375 -42" stroke="#5B8DEF" stroke-width="1.5" fill="none" stroke-dasharray="0 0" style="fill:#E8F3FF;stroke:#5B8DEF;color:#102033;stroke-width:1.5px"/></g><g class="annotation-group text" transform="translate(0, -18)"/><g class="label-group text" transform="translate(-107.7734375, -18)"><g class="label" style="font-weight: bolder" transform="translate(0,-12)"><foreignObject width="215.546875" height="24"><div xmlns="http://www.w3.org/1999/xhtml" style="display: table-cell; white-space: nowrap; line-height: 1.5; max-width: 249px; text-align: center;"><span class="nodeLabel markdown-node-label" style="fill:#E8F3FF;stroke:#5B8DEF;color:#102033;stroke-width:1.5px"><p>GeoMultiPolygonColumnType</p></span></div></foreignObject></g></g><g class="members-group text" transform="translate(-107.7734375, 30)"/><g class="methods-group text" transform="translate(-107.7734375, 60)"/><g class="divider" style="fill:#E8F3FF;stroke:#5B8DEF;color:#102033;stroke-width:1.5px"><path d="M-119.7734375 6 C-59.44320748693795 6.00025185145919, 0.8870225261240989 6.00050370291838, 119.7734375 6.001 M-119.7734375 6 C-47.06442140267451 6.000303527299604, 25.644594694650976 6.000607054599208, 119.7734375 6.001" stroke="#5B8DEF" stroke-width="1.5" fill="none" stroke-dasharray="0 0" style="fill:#E8F3FF;stroke:#5B8DEF;color:#102033;stroke-width:1.5px"/></g><g class="divider" style="fill:#E8F3FF;stroke:#5B8DEF;color:#102033;stroke-width:1.5px"><path d="M-119.7734375 24 C-56.65850463692646 24.00026347633574, 6.456428226147082 24.000526952671482, 119.7734375 24.001 M-119.7734375 24 C-51.852113435758426 24.000283540847963, 16.069210628483148 24.000567081695927, 119.7734375 24.001" stroke="#5B8DEF" stroke-width="1.5" fill="none" stroke-dasharray="0 0" style="fill:#E8F3FF;stroke:#5B8DEF;color:#102033;stroke-width:1.5px"/></g></g><g class="node default" id="my-svg-classId-GeoGeometryCollectionColumnType-7" data-look="classic" transform="translate(1778.828125, 208)"><g class="basic label-container outer-path"><path d="M-146.890625 -42 L146.890625 -42 L146.890625 42 L-146.890625 42" stroke="none" stroke-width="0" fill="#E8F3FF" style="fill:#E8F3FF;stroke:#5B8DEF;color:#102033;stroke-width:1.5px"/><path d="M-146.890625 -42 C-61.79518608070326 -42, 23.30025283859348 -42, 146.890625 -42 M-146.890625 -42 C-49.122251867723676 -42, 48.64612126455265 -42, 146.890625 -42 M146.890625 -42 C146.890625 -13.403645983714899, 146.890625 15.192708032570202, 146.890625 42 M146.890625 -42 C146.890625 -11.653817847819763, 146.890625 18.692364304360474, 146.890625 42 M146.890625 42 C73.95411245317892 42, 1.0175999063578445 42, -146.890625 42 M146.890625 42 C65.45175595777164 42, -15.987113084456723 42, -146.890625 42 M-146.890625 42 C-146.890625 17.379959340826623, -146.890625 -7.240081318346753, -146.890625 -42 M-146.890625 42 C-146.890625 19.281445214197806, -146.890625 -3.4371095716043882, -146.890625 -42" stroke="#5B8DEF" stroke-width="1.5" fill="none" stroke-dasharray="0 0" style="fill:#E8F3FF;stroke:#5B8DEF;color:#102033;stroke-width:1.5px"/></g><g class="annotation-group text" transform="translate(0, -18)"/><g class="label-group text" transform="translate(-134.890625, -18)"><g class="label" style="font-weight: bolder" transform="translate(0,-12)"><foreignObject width="269.78125" height="24"><div xmlns="http://www.w3.org/1999/xhtml" style="display: table-cell; white-space: nowrap; line-height: 1.5; max-width: 291px; text-align: center;"><span class="nodeLabel markdown-node-label" style="fill:#E8F3FF;stroke:#5B8DEF;color:#102033;stroke-width:1.5px"><p>GeoGeometryCollectionColumnType</p></span></div></foreignObject></g></g><g class="members-group text" transform="translate(-134.890625, 30)"/><g class="methods-group text" transform="translate(-134.890625, 60)"/><g class="divider" style="fill:#E8F3FF;stroke:#5B8DEF;color:#102033;stroke-width:1.5px"><path d="M-146.890625 6 C-46.60909910036352 6.000341347604381, 53.672426799272955 6.000682695208763, 146.890625 6.001 M-146.890625 6 C-58.0165171578555 6.000302517971593, 30.857590684288994 6.000605035943186, 146.890625 6.001" stroke="#5B8DEF" stroke-width="1.5" fill="none" stroke-dasharray="0 0" style="fill:#E8F3FF;stroke:#5B8DEF;color:#102033;stroke-width:1.5px"/></g><g class="divider" style="fill:#E8F3FF;stroke:#5B8DEF;color:#102033;stroke-width:1.5px"><path d="M-146.890625 24 C-79.62656143494293 24.000228959688766, -12.362497869885857 24.00045791937753, 146.890625 24.001 M-146.890625 24 C-31.073149365064324 24.000394230318086, 84.74432626987135 24.000788460636173, 146.890625 24.001" stroke="#5B8DEF" stroke-width="1.5" fill="none" stroke-dasharray="0 0" style="fill:#E8F3FF;stroke:#5B8DEF;color:#102033;stroke-width:1.5px"/></g></g><g class="node default" id="my-svg-classId-GeoGeometryColumnType-8" data-look="classic" transform="translate(2084.96875, 208)"><g class="basic label-container outer-path"><path d="M-109.25 -42 L109.25 -42 L109.25 42 L-109.25 42" stroke="none" stroke-width="0" fill="#FFF3D9" style="fill:#FFF3D9;stroke:#D6A441;color:#102033;stroke-width:1.5px"/><path d="M-109.25 -42 C-60.97550433219346 -42, -12.701008664386919 -42, 109.25 -42 M-109.25 -42 C-50.78625506045705 -42, 7.677489879085897 -42, 109.25 -42 M109.25 -42 C109.25 -22.85803722226757, 109.25 -3.7160744445351384, 109.25 42 M109.25 -42 C109.25 -19.803200950693213, 109.25 2.393598098613573, 109.25 42 M109.25 42 C59.96995045845491 42, 10.68990091690982 42, -109.25 42 M109.25 42 C34.05574638636189 42, -41.13850722727622 42, -109.25 42 M-109.25 42 C-109.25 20.125258268492736, -109.25 -1.7494834630145277, -109.25 -42 M-109.25 42 C-109.25 15.654615579548704, -109.25 -10.690768840902592, -109.25 -42" stroke="#D6A441" stroke-width="1.5" fill="none" stroke-dasharray="0 0" style="fill:#FFF3D9;stroke:#D6A441;color:#102033;stroke-width:1.5px"/></g><g class="annotation-group text" transform="translate(0, -18)"/><g class="label-group text" transform="translate(-97.25, -18)"><g class="label" style="font-weight: bolder" transform="translate(0,-12)"><foreignObject width="194.5" height="24"><div xmlns="http://www.w3.org/1999/xhtml" style="display: table-cell; white-space: nowrap; line-height: 1.5; max-width: 224px; text-align: center;"><span class="nodeLabel markdown-node-label" style="fill:#FFF3D9;stroke:#D6A441;color:#102033;stroke-width:1.5px"><p>GeoGeometryColumnType</p></span></div></foreignObject></g></g><g class="members-group text" transform="translate(-97.25, 30)"/><g class="methods-group text" transform="translate(-97.25, 60)"/><g class="divider" style="fill:#FFF3D9;stroke:#D6A441;color:#102033;stroke-width:1.5px"><path d="M-109.25 6 C-53.1438760965055 6.000256778599101, 2.962247806988998 6.000513557198201, 109.25 6.001 M-109.25 6 C-62.89885312817091 6.000212133395294, -16.547706256341826 6.000424266790589, 109.25 6.001" stroke="#D6A441" stroke-width="1.5" fill="none" stroke-dasharray="0 0" style="fill:#FFF3D9;stroke:#D6A441;color:#102033;stroke-width:1.5px"/></g><g class="divider" style="fill:#FFF3D9;stroke:#D6A441;color:#102033;stroke-width:1.5px"><path d="M-109.25 24 C-57.71170107418192 24.00023587322163, -6.173402148363834 24.000471746443257, 109.25 24.001 M-109.25 24 C-36.29086191935552 24.000333909098767, 36.66827616128896 24.000667818197535, 109.25 24.001" stroke="#D6A441" stroke-width="1.5" fill="none" stroke-dasharray="0 0" style="fill:#FFF3D9;stroke:#D6A441;color:#102033;stroke-width:1.5px"/></g></g></g></g></g><defs><filter id="my-svg-drop-shadow" height="130%" width="130%"><feDropShadow dx="4" dy="4" stdDeviation="0" flood-opacity="0.06" flood-color="#000000"/></filter></defs><defs><filter id="my-svg-drop-shadow-small" height="150%" width="150%"><feDropShadow dx="2" dy="2" stdDeviation="0" flood-opacity="0.06" flood-color="#000000"/></filter></defs><linearGradient id="my-svg-gradient" gradientUnits="objectBoundingBox" x1="0%" y1="0%" x2="100%" y2="0%"><stop offset="0%" stop-color="#5B8DEF" stop-opacity="1"/><stop offset="100%" stop-color="#58A978" stop-opacity="1"/></linearGradient></svg>